<svg xmlns="http://www.w3.org/2000/svg" viewBox="0 0 567.3 150.8"><title>city-skyline</title><polygon points="0 128 1.4 128 1.4 111.1 2.6 111.1 2.6 107.7 6.9 107.7 6.9 105.6 9.3 105.6 9.3 104.1 12.4 104.1 12.4 112.3 18 112.3 18 121.6 22.4 121.6 22.4 109.9 31.3 109.9 31.3 121.6 38.6 121.6 38.6 100.8 47.4 100.8 47.4 104.1 52.1 104.1 52.1 121.6 57.8 121.6 57.8 98.6 66.7 98.6 66.7 121.6 81.5 121.6 81.5 90.8 90.3 90.8 90.3 121.6 104.3 121.6 104.3 81.2 110.9 81.2 110.9 121.6 125.7 121.6 125.7 100.8 128.9 100.8 128.9 99.5 128.9 97.3 134.4 97.3 134.4 99.5 135.6 99.5 135.6 103 141 103 141 109.5 142.3 109.5 142.3 89.5 148.2 89.5 148.2 87.2 157 87.2 157 109.5 158.5 109.5 158.5 79.1 161.8 79.1 161.8 74.6 163.9 74.6 163.9 73.6 172.8 73.6 172.8 83.5 180.9 83.5 180.9 109.5 185.3 109.5 185.3 79 189.9 79 189.9 69.8 191.6 69.8 191.6 67 192.9 67 192.9 64.1 194.1 64.1 196.2 58 198.3 64.1 199.5 64.1 199.5 67 200.1 67 200.1 60.7 200.1 57.3 212.2 52 213.5 52 213.5 60.7 219.4 60.7 219.4 88.2 226.3 88.2 226.3 50.4 228.8 50.4 228.8 41.1 236 41.1 236 50.4 238.5 50.4 238.5 87.4 279.2 87.4 279.2 80.5 281.1 80.5 281.1 74.9 293.3 74.9 293.3 109.5 316.3 109.5 316.3 93.6 328.5 93.6 328.5 104.5 353 104.5 353 96.8 365.2 96.8 365.2 100.1 367.1 100.1 367.1 103.2 369.6 103.2 369.6 105.4 370.8 105.4 370.8 103.2 379.8 103.2 379.8 105.4 381 105.4 381 107.6 383.2 107.6 383.2 94 385.3 94 385.3 83.5 389.8 83.5 389.8 82 402.1 82 402.1 83.5 409.2 83.5 409.2 93.8 410.3 93.8 410.3 97.4 416.9 97.4 416.9 99.7 427.1 99.7 427.1 105.3 433 105.3 433 113.6 460.8 113.6 460.8 103 474.3 103 474.3 105.5 477.7 105.5 477.7 111 495.9 111 495.9 113.2 511.3 113.2 511.3 121.6 512.2 121.6 512.2 110.8 534.3 110.8 534.3 107.6 537.9 107.6 537.9 110.8 542.1 110.8 542.1 117.9 547.9 117.9 547.9 118.9 551.4 118.9 551.4 117.9 552.6 117.9 552.6 121.2 554.7 121.2 554.7 128.1 557.1 128.1 557.1 130.9 559.2 130.9 559.2 141.9 559.2 141.9 559.2 150.8 0 150.8 0 141.9 0 141.9 0 128" fill="#3fc6ee"/><polygon points="7.1 124.3 15.8 124.3 15.8 146.1 16.9 146.1 16.9 117.8 28.2 117.8 28.2 146.1 29.5 146.1 29.5 91.3 31.8 91.3 31.8 89.2 46.5 89.2 46.5 91.3 47.8 91.3 47.8 146.1 52.1 146.1 52.1 114.2 65 114.2 65 146.1 90.9 146.1 90.9 71.8 96.7 71.8 96.7 69.4 110.4 69.4 110.4 71.8 110.4 146.1 118.6 146.1 118.6 75.1 130 75.1 130 146.1 156.1 146.1 156.1 93.6 169.5 93.6 169.5 146.1 170.9 146.1 170.9 82.3 179.7 82.3 179.7 146.1 183 146.1 183 84.5 190 84.5 190 146.1 191.2 146.1 191.2 107.1 198.2 107.1 198.2 87.7 208.4 87.7 208.4 81.3 221.7 81.3 221.7 87.7 221.7 102.8 225.1 102.8 225.1 107.1 225.1 146.1 225.1 146.1 226.5 146.1 226.5 81.3 233.3 81.3 233.3 106.2 237.5 106.2 237.5 70.9 254.4 70.9 254.4 146.1 277.6 146.1 277.6 111.8 292.6 111.8 292.6 146.1 311.5 146.1 311.5 101.4 326.5 101.4 326.5 146.1 330.2 146.1 330.2 115.3 342.9 115.3 342.9 146.1 349.1 146.1 349.1 103.8 364.1 103.8 364.1 146.1 365.6 146.1 365.6 144.6 368 144.6 368 133.5 371.2 133.5 371.2 123.3 376.6 123.3 376.6 146.1 392 146.1 392 110.8 400.2 110.8 400.2 146.1 406.4 146.1 406.4 98.5 413.2 98.5 413.2 129 415.6 129 415.6 113.8 422.4 113.8 422.4 146.1 479.6 146.1 479.6 134.5 481.8 134.5 481.8 126.9 488 126.9 488 112.9 497.2 112.9 497.2 146.1 527.3 146.1 527.3 114.3 538.6 114.3 538.6 140.2 564.8 140.2 564.8 150.8 0 150.8 0 146.1 7.1 146.1 7.1 124.3" fill="#3874ba"/><polygon points="466.8 146.2 476.5 146.2 476.5 101 466.8 101 466.8 146.2" fill="#3874ba"/><polygon points="512.1 99.6 515.6 99.6 515.6 98.5 516.9 98.5 516.9 96 519.1 96 519.1 94.9 523.7 94.9 523.7 96 524.8 96 524.8 98.5 524.8 99.6 524.8 102.7 524.8 104 526 104 526 144.9 510 144.9 510 104 512.1 104 512.1 99.6" fill="#3874ba"/><polygon points="540.2 133.2 551 133.2 551 145 540.2 145 540.2 133.2" fill="#3874ba"/><polygon points="192 128.4 197.2 128.4 197.2 140 192 140 192 128.4" fill="#0d4e8f"/><polygon points="435.4 75.4 437.3 75.4 437.3 71.2 439.9 71.2 439.9 66.5 440.9 66.5 440.9 64.3 443.2 64.3 443.2 64.9 444.8 64.9 444.8 66.5 446.8 66.5 446.8 64.3 449 64.3 449 64.9 450.7 64.9 450.7 66.5 452.6 66.5 452.6 64.3 454.9 64.3 454.9 64.9 456.5 64.9 456.5 66.5 460.9 66.5 460.9 64.3 463.2 64.3 463.2 64.9 464.8 64.9 464.8 66.5 465.7 66.5 465.7 71.2 466.9 71.2 466.9 75.4 468 75.4 468 148.4 435.4 148.4 435.4 75.4" fill="#0d4e8f"/><polygon points="357.6 147.3 357.6 66.7 351.8 66.7 351.8 63 339.7 63 339.7 62.7 338.4 62.7 338.4 63 337.2 63 337.2 62.3 336 62.3 336 63 334.8 63 334.8 66.7 332.1 66.7 332.1 147.3 328.5 147.3 328.5 148 361.8 148 361.8 147.3 357.6 147.3" fill="#0d4e8f"/><polygon points="0.3 150.8 567.3 150.8 567.3 146.1 0.3 146.1 0.3 150.8" fill="#0d4e8f"/><polygon points="196.1 95.2 199.3 95.2 199.3 93.6 219.6 93.6 219.6 95.2 219.6 146.3 219.6 147.9 196.1 147.9 196.1 95.2" fill="#0d4e8f"/><polygon points="167.8 99.8 170.9 99.8 170.9 98.3 188.2 98.3 188.2 99.8 188.2 145.5 188.2 147 167.8 147 167.8 99.8" fill="#0d4e8f"/><polygon points="236 84.7 238.8 84.7 238.8 82.5 242.7 82.5 242.7 79.7 249.6 79.7 249.6 82.5 250.7 82.5 250.7 81.5 255.2 81.5 255.2 82.5 257.5 82.5 257.5 80.3 265.6 80.3 265.6 82.5 276.9 82.5 276.9 84.7 281.2 84.7 281.2 147.3 236 147.3 236 84.7" fill="#0d4e8f"/><polygon points="226.4 126.7 279.1 126.7 279.1 150.3 226.4 150.3 226.4 126.7" fill="#0d4e8f"/><polygon points="301.9 60.4 296.3 60.4 296.3 60.9 291.7 60.9 291.7 64.2 288.4 64.2 288.4 68.6 288.4 145.6 288.4 150 323.5 150 323.5 68.6 317.7 68.6 317.7 64.2 312.2 64.2 312.2 62 306.5 62 306.5 60.8 304.2 60.8 304.2 60 301.9 60 301.9 60.4" fill="#0d4e8f"/><polygon points="401.1 116.5 401.7 116.5 402.8 114.8 403.7 114.8 404.8 116.5 405.6 116.5 405.6 117.6 407.8 117.6 407.8 118.8 408.9 118.8 408.9 120 410.1 120 410.1 148.4 396.6 148.4 396.6 120 397.7 120 397.7 118.8 398.9 118.8 398.9 117.6 401.1 117.6 401.1 116.5" fill="#0d4e8f"/><polygon points="428.3 118.9 428.3 117.6 427.2 117.6 427.2 118.9 418.1 118.9 418.1 122.3 415.8 122.3 415.8 133 412.5 133 412.5 148.4 432.9 148.4 432.9 137.7 432.9 133 432.9 122.3 430.5 122.3 430.5 118.9 428.3 118.9" fill="#0d4e8f"/><path d="M378.9,176.5h8.7V195h-8.7V176.5Zm29.2,9.5h6.4v9.1H397.2v-.2H389v-4.3h2v-8.1h8.3v-9.8h8.8V186Z" transform="translate(-19.8 -45.1)" fill="#0d4e8f"/><polygon points="536.8 143.1 556.9 143.1 556.9 149.8 536.8 149.8 536.8 143.1" fill="#0d4e8f"/><path d="M509.6,175.7H512v-1.2h-1v-1h48.7v1h-1.4v1.2H562V195H509.6V175.7Zm2.9,0h3.6v-1.2h-3.6v1.2Zm4.1,0h3.6v-1.2h-3.6v1.2Zm4.1,0h3.6v-1.2h-3.6v1.2Zm4.1,0h3.6v-1.2h-3.6v1.2Zm4.1,0h12.5v-1.2H528.9v1.2Zm13,0h3.6v-1.2h-3.6v1.2Zm4.1,0h3.6v-1.2H546v1.2Zm4.1,0h3.6v-1.2h-3.6v1.2Zm4.1,0h3.6v-1.2h-3.6v1.2Z" transform="translate(-19.8 -45.1)" fill="#0d4e8f"/><polygon points="139.8 25 143.6 29 143.6 33.2 143.6 33.2 145.8 35.4 145.8 39.4 148.9 42.5 148.9 46.1 152.4 49.7 152.4 148 123.3 148 123.3 49.7 126.9 46.1 126.9 42.5 129.9 39.4 129.9 35.4 132.1 33.2 132.1 33.2 132.1 29 136 25 136.9 22.6 137.9 0 138.8 22.6 139.8 25" fill="#0d4e8f"/><polygon points="64.7 62.7 67.7 62.7 67.7 47 69.6 45 69.6 39.2 71.6 37.2 71.6 30.6 80.5 24.2 81.2 20.7 81.9 24.2 90.7 30.6 90.7 37.2 92.7 39.2 92.7 45 94.7 47 94.7 62.7 97.6 62.7 97.6 147.4 64.7 147.4 64.7 62.7" fill="#0d4e8f"/><path d="M30.5,181.5h17v-1h.4V180h2.4v.5H52v-1.7h3.4v1.7h6.7v1h8.5v-1.1h8.5v1.1H86v3.4h23.5v3.5H86v3.2H30.5V181.5Zm57.7,11.4h15V194H111v1.1H24.6V194H20.1v-4.7H29v2.4H88.2v1.2Z" transform="translate(-19.8 -45.1)" fill="#0d4e8f"/><polygon points="58 138 359.5 138 359.5 150.5 58 150.5 58 138" fill="#0d4e8f"/><polygon points="92.5 114.6 106.5 114.6 106.5 139.8 92.5 139.8 92.5 114.6" fill="#0d4e8f"/><polygon points="115.5 130 126.9 130 126.9 140.2 115.5 140.2 115.5 130" fill="#0d4e8f"/><polygon points="153.9 123.2 165.7 123.2 165.7 142.8 153.9 142.8 153.9 123.2" fill="#0d4e8f"/><polygon points="218 122.8 221.6 122.8 221.6 138.8 218 138.8 218 122.8" fill="#0d4e8f"/><polygon points="228.4 131.8 220.8 131.8 220.8 133.2 228.4 133.2 228.4 131.8" fill="#0d4e8f"/><polygon points="283.5 129.2 290.9 129.2 290.9 141.4 283.5 141.4 283.5 129.2" fill="#0d4e8f"/><polygon points="328.1 123 334.9 123 334.9 143.8 328.1 143.8 328.1 123" fill="#0d4e8f"/><polygon points="471 132.6 479.9 132.6 479.9 146.8 471 146.8 471 132.6" fill="#0d4e8f"/><polygon points="485 138.9 492.1 138.9 492.1 145.6 485 145.6 485 138.9" fill="#0d4e8f"/><polygon points="104.7 133 113.9 133 113.9 140.9 104.7 140.9 104.7 133" fill="#0d4e8f"/></svg>