<?xml version="1.0" encoding="utf-8"?>
<!-- Generator: Adobe Illustrator 19.2.1, SVG Export Plug-In . SVG Version: 6.00 Build 0)  -->
<svg version="1.1" id="Layer_1" xmlns="http://www.w3.org/2000/svg" xmlns:xlink="http://www.w3.org/1999/xlink" x="0px" y="0px"
	 viewBox="0 0 338.9 89.6" style="enable-background:new 0 0 338.9 89.6;" xml:space="preserve">
<style type="text/css">
	.st0{fill:#444444;}
	.st1{font-family:'TrebuchetMS-Bold';}
	.st2{font-size:44.6632px;}
	.st3{font-size:26.3138px;}
	.st4{letter-spacing:-3;}
	.st5{fill:#F2C612;}
</style>
<g>
	<text transform="matrix(1 0 0 1 81.5175 79.8943)" class="st0 st1 st2">Philadelphia</text>
	<text transform="matrix(1 0 0 1 83.4804 33.613)" class="st0 st1 st3">City</text>
	<text transform="matrix(1 0 0 1 131.8804 33.613)" class="st0 st1 st3 st4"> </text>
	<text transform="matrix(1 0 0 1 136.1804 33.613)" class="st0 st1 st3">of</text>
	<text transform="matrix(1 0 0 1 131.8964 40.613)" class="st0 st1 st3"> </text>
	<g>
		<path class="st5" d="M29.2,69.9c0.2,2.1,0.6,5.3,0.9,6.6c13,3.4,21.9,1.7,24,0.3c1.5-1.1,2.6-1.6,0.5-5.9
			C49.8,72.8,40,72.7,29.2,69.9"/>
		<g>
			<path class="st5" d="M23.9,75.8c-1.5-0.5-3,0.3-3.5,1.8c-0.4,1.1,0,2.3,0.9,3l-0.6,1.3c0,0,0.4,0.4,1.1,0.6
				c0.7,0.2,1.1,0.1,1.1,0.1l0.2-1.4c1.2,0,2.2-0.7,2.6-1.9C26.2,77.9,25.4,76.3,23.9,75.8"/>
			<path class="st5" d="M71,16.9c0.7-2.4-0.9-2.8-1.4-2.9L53.8,9.6c-1.2-0.3-0.8-3.1-1.9-3.4c0,0-11.3-3.2-12.4-3.5S37.3,5,36.1,4.6
				L20.2,0.1c-0.5-0.1-2.1-0.6-2.7,1.8l-3.6,12.9C13.8,15,13.7,15,13.5,15l-1.1-0.3c-0.4-0.1-0.7,0-1,0.6s-0.7,1.5-1.1,2.9
				c-0.5,1.6-0.6,3-0.7,3.5c0,0.5,0,0.8,0.6,1l10.1,2.8c0.6,0.2,1.4,0.2,1.9-0.9c1.1-2.3,3.8-6.7,4.7-7.2c1.2-0.7,8.4,0.5,8.4,0.5
				s-0.2,0.4-0.5,1.5c-0.3,1.1,0.4,3.9-0.3,4.3c-3.5,2-9.9-1-12,4.9c-5.2,15.1-9.1,21.5-15,25.4c2.8,3.3,9.3,6.7,18.8,9.6
				c-0.1-0.3-0.1-0.6-0.1-0.9c0-0.5,0-1.2-0.2-3.4c-0.2-2.1-0.4-3.1-0.4-4.1c0-1.1,0.1-2,0.6-3.8c0.1-0.2,0.1-0.5,0.2-0.7
				c0.7-2.4,3-9.1,3.9-11c0.2-0.3,0.4-0.3,0.4-0.3c0.1,0,0.3,0.1,0.2,0.4c-0.2,2.1-1.9,8.9-2.6,11.4c-0.1,0.2-0.1,0.5-0.2,0.7
				c-0.5,1.7-0.4,2.5-0.4,3.4s0.3,2,0.5,4.1c0.2,2.2,0.2,3.1,0.2,3.6c0,0.4,0,0.6,0.3,1.3c0.1,0,0.1,0,0.2,0
				c10.8,3,19.1,3.7,23.5,2.2c-3-6.4-3-14,0.2-29.6c1.3-6.2-5.7-6.8-7.7-10.4c-0.4-0.6,1.6-2.7,2-3.8c0.3-1.1,0.4-1.6,0.4-1.6
				s7,2.8,7.7,4c0.5,0.9,0.6,6.1,0.3,8.6c-0.1,1.2,0.6,1.6,1.2,1.8l10.1,2.8c0.6,0.2,0.8-0.1,1-0.6s0.8-1.7,1.3-3.3
				c0.4-1.4,0.5-2.4,0.5-3.1c0-0.6-0.2-0.9-0.6-1l-1.2-0.2c-0.2,0-0.3-0.2-0.2-0.4"/>
			<path class="st5" d="M3.3,56.6c-4.1,2.8-3.6,4.2-2.4,5.7c2.8,3.6,10.3,9,24,12.8c0,0,2.7,0.7,3.1,0.8c-0.2-1.1-0.7-4.6-0.9-6.6
				C15.6,66.1,6.5,60.9,3.3,56.6"/>
		</g>
	</g>
</g>
</svg>
