<svg xmlns="http://www.w3.org/2000/svg" xmlns:xlink="http://www.w3.org/1999/xlink" version="1.1" id="Layer_1" x="0px" y="0px" viewBox="0 0 338.9 89.6" xml:space="preserve" enable-background="new 0 0 338.9 89.6"><style type="text/css">
	.st0{enable-background:new    ;}
	.st1{fill:#444444;}
	.st2{font-family:'TrebuchetMS-Bold';}
	.st3{font-size:26.3138px;}
	.st4{letter-spacing:-3;}
	.st5{fill:#F2C612;}
</style><g class="st0"><path class="st1" d="M90.5 68.1v11.8h-5.7V48c3.8-0.2 6-0.2 6.6-0.2 5 0 8.7 0.8 11.1 2.3 2.3 1.5 3.5 4 3.5 7.3 0 7.3-4.3 11-13 11C92.4 68.3 91.5 68.2 90.5 68.1zM90.5 52.9v10.2c1 0.1 1.7 0.2 2.3 0.2 2.6 0 4.5-0.4 5.7-1.3 1.2-0.9 1.8-2.3 1.8-4.2 0-3.3-2.7-5-8-5C91.6 52.8 91 52.8 90.5 52.9zM125.8 79.9V65.5c0-1.4-0.5-2.6-1.4-3.5 -0.9-0.9-2.1-1.3-3.5-1.3 -0.9 0-1.8 0.2-2.7 0.7s-1.6 1-2 1.7v16.8h-5.5V47.8l5.5-1.3V58c1.4-1.3 3.4-1.9 5.8-1.9 2.9 0 5.2 0.8 6.8 2.4s2.4 3.9 2.4 7v14.4H125.8zM138.6 79.9V61h-3v-4.5h8.5v23.4H138.6zM141.4 47.5c0.9 0 1.6 0.3 2.2 0.9 0.6 0.6 0.9 1.4 0.9 2.2 0 0.9-0.3 1.6-0.9 2.2 -0.6 0.6-1.4 0.9-2.2 0.9 -0.9 0-1.6-0.3-2.2-0.9 -0.6-0.6-0.9-1.4-0.9-2.2 0-0.9 0.3-1.6 0.9-2.2C139.8 47.8 140.6 47.5 141.4 47.5zM151.4 47.8l5.5-1.3v26.3c0 2.9 0.9 4.6 2.6 5.1 -0.8 1.6-2.3 2.4-4.3 2.4 -2.5 0-3.7-1.7-3.7-5.1V47.8zM176.6 77.6c-0.5 0.8-1.4 1.5-2.6 2s-2.5 0.8-3.8 0.8c-2.5 0-4.5-0.6-5.9-1.9s-2.2-3-2.2-5.4c0-2.7 1-4.8 3-6.3s4.9-2.3 8.6-2.3c0.6 0 1.4 0.1 2.3 0.3 0-2.7-1.7-4.1-5.2-4.1 -2.1 0-3.8 0.3-5.1 1l-1.2-4.2c1.9-0.9 4.1-1.4 6.7-1.4 3.6 0 6.2 0.8 7.8 2.4s2.5 4.7 2.5 9.2v5c0 3.1 0.6 5.1 1.9 5.9 -0.5 0.8-1 1.3-1.5 1.5 -0.6 0.2-1.2 0.3-1.9 0.3 -0.8 0-1.5-0.3-2.1-0.9C177.3 78.9 176.9 78.2 176.6 77.6zM176.1 68.9c-0.9-0.2-1.6-0.3-2.1-0.3 -4.3 0-6.5 1.4-6.5 4.2 0 2.1 1.2 3.1 3.6 3.1 3.3 0 4.9-1.6 4.9-4.9V68.9zM202.5 79.9v-1.4c-0.5 0.5-1.2 0.9-2.3 1.3 -1.1 0.4-2.2 0.6-3.3 0.6 -3.3 0-5.8-1-7.7-3.1s-2.8-4.9-2.8-8.6c0-3.7 1.1-6.7 3.2-9 2.1-2.3 4.8-3.5 8.1-3.5 1.8 0 3.4 0.4 4.8 1.1v-9.4l5.5-1.3v33.4H202.5zM202.5 62.1c-1.2-0.9-2.4-1.4-3.6-1.4 -2.2 0-3.9 0.7-5 2S192 66 192 68.4c0 4.9 2.3 7.3 7 7.3 0.5 0 1.2-0.2 1.9-0.5 0.8-0.3 1.3-0.6 1.5-0.9V62.1zM234.2 69.9h-16.7c0.1 1.9 0.7 3.3 1.9 4.3s2.8 1.5 4.8 1.5c2.5 0 4.4-0.6 5.7-1.9L232 78c-1.9 1.6-4.8 2.3-8.6 2.3 -3.6 0-6.4-1-8.5-3.1 -2.1-2.1-3.1-5-3.1-8.7 0-3.7 1.1-6.7 3.4-8.9 2.3-2.3 5-3.4 8.2-3.4 3.4 0 6.1 1 8.2 3 2 2 3.1 4.6 3.1 7.7C234.7 67.5 234.5 68.5 234.2 69.9zM217.7 65.8h11.5c-0.4-3.4-2.3-5.1-5.7-5.1C220.4 60.7 218.5 62.4 217.7 65.8zM240 47.8l5.5-1.3v26.3c0 2.9 0.9 4.6 2.6 5.1 -0.8 1.6-2.3 2.4-4.3 2.4 -2.5 0-3.7-1.7-3.7-5.1V47.8zM257.2 79.3v9.7h-5.5V56.5h5.5v1.6c1.4-1.3 3-2 5-2 7.4 0 11.2 4.1 11.2 12.3 0 3.8-1 6.8-3.1 8.8 -2.1 2.1-4.9 3.1-8.4 3.1C260.2 80.3 258.6 80 257.2 79.3zM257.2 62.3v12.3c1 0.8 2.1 1.2 3.5 1.2 2.5 0 4.3-0.6 5.4-1.8 1.1-1.2 1.6-3.1 1.6-5.7 0-2.8-0.5-4.7-1.6-5.8 -1.1-1.1-2.9-1.7-5.4-1.7C259.4 60.7 258.2 61.2 257.2 62.3zM293.3 79.9V65.5c0-1.4-0.5-2.6-1.4-3.5 -0.9-0.9-2.1-1.3-3.5-1.3 -0.9 0-1.8 0.2-2.7 0.7s-1.6 1-2 1.7v16.8h-5.5V47.8l5.5-1.3V58c1.4-1.3 3.4-1.9 5.8-1.9 2.9 0 5.2 0.8 6.8 2.4s2.4 3.9 2.4 7v14.4H293.3zM306.2 79.9V61h-3v-4.5h8.5v23.4H306.2zM309 47.5c0.9 0 1.6 0.3 2.2 0.9 0.6 0.6 0.9 1.4 0.9 2.2 0 0.9-0.3 1.6-0.9 2.2 -0.6 0.6-1.4 0.9-2.2 0.9 -0.9 0-1.6-0.3-2.2-0.9 -0.6-0.6-0.9-1.4-0.9-2.2 0-0.9 0.3-1.6 0.9-2.2C307.4 47.8 308.1 47.5 309 47.5zM331 77.6c-0.5 0.8-1.4 1.5-2.6 2s-2.5 0.8-3.8 0.8c-2.5 0-4.5-0.6-5.9-1.9s-2.2-3-2.2-5.4c0-2.7 1-4.8 3-6.3s4.9-2.3 8.6-2.3c0.6 0 1.4 0.1 2.3 0.3 0-2.7-1.7-4.1-5.2-4.1 -2.1 0-3.8 0.3-5.1 1l-1.2-4.2c1.9-0.9 4.1-1.4 6.7-1.4 3.6 0 6.2 0.8 7.8 2.4s2.5 4.7 2.5 9.2v5c0 3.1 0.6 5.1 1.9 5.9 -0.5 0.8-1 1.3-1.5 1.5 -0.6 0.2-1.2 0.3-1.9 0.3 -0.8 0-1.5-0.3-2.1-0.9C331.7 78.9 331.2 78.2 331 77.6zM330.5 68.9c-0.9-0.2-1.6-0.3-2.1-0.3 -4.3 0-6.5 1.4-6.5 4.2 0 2.1 1.2 3.1 3.6 3.1 3.3 0 4.9-1.6 4.9-4.9V68.9z"/></g><g class="st0"><path class="st1" d="M98.3 15.8l-1.4 2.8c-0.7-0.7-1.9-1.1-3.6-1.1 -1.6 0-2.9 0.7-3.9 2 -1 1.3-1.5 3-1.5 5 0 2 0.5 3.6 1.4 4.8 0.9 1.2 2.2 1.8 3.7 1.8 1.8 0 3.2-0.6 4.2-1.9l1.6 2.7c-1.4 1.4-3.4 2.2-6 2.2 -2.6 0-4.7-0.9-6.1-2.6 -1.5-1.7-2.2-4.1-2.2-7.1 0-2.8 0.8-5.1 2.4-7 1.6-1.9 3.7-2.8 6.2-2.8C95.3 14.5 97 14.9 98.3 15.8zM102.2 33.6V22.5h-1.8v-2.6h5v13.8H102.2zM103.8 14.5c0.5 0 1 0.2 1.3 0.5 0.4 0.4 0.5 0.8 0.5 1.3 0 0.5-0.2 1-0.5 1.3 -0.4 0.4-0.8 0.5-1.3 0.5 -0.5 0-1-0.2-1.3-0.5 -0.4-0.4-0.5-0.8-0.5-1.3 0-0.5 0.2-1 0.5-1.3C102.9 14.7 103.3 14.5 103.8 14.5zM109.7 22.4h-1.6v-2.6h1.6v-2.8l3.2-1.2v4h3.8v2.6h-3.8v6c0 1 0.2 1.7 0.5 2.1 0.3 0.4 0.8 0.6 1.6 0.6 0.8 0 1.5-0.2 2.2-0.6v3c-0.7 0.3-1.8 0.4-3.2 0.4 -1.4 0-2.4-0.4-3.2-1.2 -0.7-0.8-1.1-1.9-1.1-3.3V22.4zM125.7 35.8c-0.3 0.9-1.1 1.7-2.2 2.3 -1.1 0.6-2.4 0.9-3.9 0.9v-2.8c2.5 0 3.7-0.6 3.7-1.9 0-0.8-0.3-2.1-1-3.8l-4.3-10.7h3.3l3.8 9.5 3.4-9.5h3.3L125.7 35.8z"/></g><text transform="matrix(1 0 0 1 131.8804 33.613)" class="st1 st2 st3 st4"/><g class="st0"><path class="st1" d="M137 26.7c0-2.1 0.6-3.8 1.8-5.1 1.2-1.3 2.8-2 4.8-2 2.1 0 3.7 0.6 4.9 1.9s1.7 3 1.7 5.2c0 2.2-0.6 3.9-1.8 5.2 -1.2 1.3-2.8 1.9-4.8 1.9 -2.1 0-3.7-0.7-4.9-2C137.6 30.6 137 28.9 137 26.7zM140.4 26.7c0 3 1.1 4.5 3.3 4.5 1 0 1.8-0.4 2.4-1.2s0.9-1.9 0.9-3.4c0-3-1.1-4.5-3.3-4.5 -1 0-1.8 0.4-2.4 1.2C140.7 24.2 140.4 25.3 140.4 26.7zM160.5 17.2c-0.7-0.2-1.2-0.3-1.6-0.3 -0.6 0-1.1 0.3-1.5 0.8 -0.4 0.5-0.6 1.2-0.6 1.9 0 0.1 0 0.2 0 0.3h2.9v2.6h-2.8v11.1h-3.2V22.5h-2v-2.6h2c0.1-1.7 0.6-3 1.5-4.1 0.9-1 2.1-1.6 3.6-1.6 0.8 0 1.7 0.2 2.8 0.5L160.5 17.2z"/></g><text transform="matrix(1 0 0 1 131.8964 40.613)" class="st1 st2 st3"/><path class="st5" d="M29.2 69.9c0.2 2.1 0.6 5.3 0.9 6.6 13 3.4 21.9 1.7 24 0.3 1.5-1.1 2.6-1.6 0.5-5.9C49.8 72.8 40 72.7 29.2 69.9"/><path class="st5" d="M23.9 75.8c-1.5-0.5-3 0.3-3.5 1.8 -0.4 1.1 0 2.3 0.9 3l-0.6 1.3c0 0 0.4 0.4 1.1 0.6s1.1 0.1 1.1 0.1l0.2-1.4c1.2 0 2.2-0.7 2.6-1.9C26.2 77.9 25.4 76.3 23.9 75.8M71 16.9c0.7-2.4-0.9-2.8-1.4-2.9L53.8 9.6c-1.2-0.3-0.8-3.1-1.9-3.4 0 0-11.3-3.2-12.4-3.5S37.3 5 36.1 4.6L20.2 0.1c-0.5-0.1-2.1-0.6-2.7 1.8l-3.6 12.9C13.8 15 13.7 15 13.5 15l-1.1-0.3c-0.4-0.1-0.7 0-1 0.6s-0.7 1.5-1.1 2.9c-0.5 1.6-0.6 3-0.7 3.5 0 0.5 0 0.8 0.6 1l10.1 2.8c0.6 0.2 1.4 0.2 1.9-0.9 1.1-2.3 3.8-6.7 4.7-7.2 1.2-0.7 8.4 0.5 8.4 0.5s-0.2 0.4-0.5 1.5 0.4 3.9-0.3 4.3c-3.5 2-9.9-1-12 4.9 -5.2 15.1-9.1 21.5-15 25.4 2.8 3.3 9.3 6.7 18.8 9.6 -0.1-0.3-0.1-0.6-0.1-0.9 0-0.5 0-1.2-0.2-3.4 -0.2-2.1-0.4-3.1-0.4-4.1 0-1.1 0.1-2 0.6-3.8 0.1-0.2 0.1-0.5 0.2-0.7 0.7-2.4 3-9.1 3.9-11 0.2-0.3 0.4-0.3 0.4-0.3 0.1 0 0.3 0.1 0.2 0.4 -0.2 2.1-1.9 8.9-2.6 11.4 -0.1 0.2-0.1 0.5-0.2 0.7 -0.5 1.7-0.4 2.5-0.4 3.4s0.3 2 0.5 4.1c0.2 2.2 0.2 3.1 0.2 3.6 0 0.4 0 0.6 0.3 1.3 0.1 0 0.1 0 0.2 0 10.8 3 19.1 3.7 23.5 2.2 -3-6.4-3-14 0.2-29.6 1.3-6.2-5.7-6.8-7.7-10.4 -0.4-0.6 1.6-2.7 2-3.8 0.3-1.1 0.4-1.6 0.4-1.6s7 2.8 7.7 4c0.5 0.9 0.6 6.1 0.3 8.6 -0.1 1.2 0.6 1.6 1.2 1.8l10.1 2.8c0.6 0.2 0.8-0.1 1-0.6s0.8-1.7 1.3-3.3c0.4-1.4 0.5-2.4 0.5-3.1 0-0.6-0.2-0.9-0.6-1l-1.2-0.2c-0.2 0-0.3-0.2-0.2-0.4M3.3 56.6c-4.1 2.8-3.6 4.2-2.4 5.7 2.8 3.6 10.3 9 24 12.8 0 0 2.7 0.7 3.1 0.8 -0.2-1.1-0.7-4.6-0.9-6.6C15.6 66.1 6.5 60.9 3.3 56.6"/></svg>
