<?xml version="1.0" encoding="UTF-8" standalone="no"?>
<!DOCTYPE svg PUBLIC "-//W3C//DTD SVG 1.1//EN"
 "http://www.w3.org/Graphics/SVG/1.1/DTD/svg11.dtd">
<!-- Generated by graphviz version 2.28.0 (20110507.0327)
 -->
<!-- Title: G Pages: 1 -->
<svg width="688pt" height="1458pt"
 viewBox="0.00 0.00 688.00 1457.82" xmlns="http://www.w3.org/2000/svg" xmlns:xlink="http://www.w3.org/1999/xlink">
<g id="graph1" class="graph" transform="scale(1 1) rotate(0) translate(4 1453.82)">
<title>G</title>
<polygon fill="white" stroke="white" points="-4,5 -4,-1453.82 685,-1453.82 685,5 -4,5"/>
<g id="graph2" class="cluster"><title>cluster_global</title>
<polyline fill="none" stroke="gray" points="242,-127.819 660,-127.819 "/>
<path fill="none" stroke="gray" d="M660,-127.819C666,-127.819 672,-133.819 672,-139.819"/>
<polyline fill="none" stroke="gray" points="672,-139.819 672,-1429.82 "/>
<path fill="none" stroke="gray" d="M672,-1429.82C672,-1435.82 666,-1441.82 660,-1441.82"/>
<polyline fill="none" stroke="gray" points="660,-1441.82 242,-1441.82 "/>
<path fill="none" stroke="gray" d="M242,-1441.82C236,-1441.82 230,-1435.82 230,-1429.82"/>
<polyline fill="none" stroke="gray" points="230,-1429.82 230,-139.819 "/>
<path fill="none" stroke="gray" d="M230,-139.819C230,-133.819 236,-127.819 242,-127.819"/>
<text text-anchor="middle" x="451" y="-1429.02" font-family="Times New Roman,serif" font-size="11.00" fill="gray">global</text>
</g>
<!-- \\MNA_Pad_Counts_Walker -->
<g id="node2" class="node"><title>\\MNA_Pad_Counts_Walker</title>
<a xlink:href="examples.twentytwelve-mla.content-tosca30-dropdown.html" xlink:title="MNA_Pad_Counts_Walker" target="_parent">
<polygon fill="none" stroke="black" points="633,-819.819 475,-819.819 475,-783.819 633,-783.819 633,-819.819"/>
<text text-anchor="middle" x="554" y="-799.019" font-family="Courier,monospace" font-size="11.00">MNA_Pad_Counts_Walker</text>
</a>
</g>
<!-- \\Walker_Category -->
<g id="node28" class="node"><title>\\Walker_Category</title>
<ellipse fill="none" stroke="black" cx="294" cy="-101.819" rx="77.1866" ry="18"/>
<text text-anchor="middle" x="294" y="-98.1192" font-family="Times New Roman,serif" font-size="14.00" fill="gray">\Walker_Category</text>
</g>
<!-- \\MNA_Pad_Counts_Walker&#45;&gt;\\Walker_Category -->
<g id="edge3" class="edge"><title>\\MNA_Pad_Counts_Walker&#45;&gt;\\Walker_Category</title>
<path fill="none" stroke="black" d="M474.9,-794.88C463.14,-790.589 452.218,-784.207 444,-774.819 252.26,-555.791 559.825,-346.214 372,-123.819 370.234,-121.728 368.284,-119.828 366.189,-118.103"/>
<polygon fill="none" stroke="black" points="367.731,-114.924 357.472,-112.278 363.841,-120.744 367.731,-114.924"/>
</g>
<!-- \\MLAPDF -->
<g id="node3" class="node"><title>\\MLAPDF</title>
<a xlink:href="includes.class-mla-data-pdf.html" xlink:title="MLAPDF" target="_parent">
<polygon fill="none" stroke="black" points="582.5,-1359.82 525.5,-1359.82 525.5,-1323.82 582.5,-1323.82 582.5,-1359.82"/>
<text text-anchor="middle" x="554" y="-1339.02" font-family="Courier,monospace" font-size="11.00">MLAPDF</text>
</a>
</g>
<!-- \\MLAData -->
<g id="node4" class="node"><title>\\MLAData</title>
<a xlink:href="includes.class-mla-data.html" xlink:title="MLAData" target="_parent">
<polygon fill="none" stroke="black" points="586,-1305.82 522,-1305.82 522,-1269.82 586,-1269.82 586,-1305.82"/>
<text text-anchor="middle" x="554" y="-1285.02" font-family="Courier,monospace" font-size="11.00">MLAData</text>
</a>
</g>
<!-- \\MLAEdit -->
<g id="node5" class="node"><title>\\MLAEdit</title>
<a xlink:href="includes.class-mla-edit-media.html" xlink:title="MLAEdit" target="_parent">
<polygon fill="none" stroke="black" points="586,-1251.82 522,-1251.82 522,-1215.82 586,-1215.82 586,-1251.82"/>
<text text-anchor="middle" x="554" y="-1231.02" font-family="Courier,monospace" font-size="11.00">MLAEdit</text>
</a>
</g>
<!-- \\MLA_Checklist_Walker -->
<g id="node6" class="node"><title>\\MLA_Checklist_Walker</title>
<a xlink:href="includes.class-mla-edit-media.html" xlink:title="MLA_Checklist_Walker" target="_parent">
<polygon fill="none" stroke="black" points="630,-1197.82 478,-1197.82 478,-1161.82 630,-1161.82 630,-1197.82"/>
<text text-anchor="middle" x="554" y="-1177.02" font-family="Courier,monospace" font-size="11.00">MLA_Checklist_Walker</text>
</a>
</g>
<!-- \\MLA_Checklist_Walker&#45;&gt;\\Walker_Category -->
<g id="edge5" class="edge"><title>\\MLA_Checklist_Walker&#45;&gt;\\Walker_Category</title>
<path fill="none" stroke="black" d="M477.897,-1174.32C464.909,-1170.02 452.78,-1163.27 444,-1152.82 296.519,-977.338 516.345,-301.889 372,-123.819 370.276,-121.693 368.362,-119.763 366.298,-118.013"/>
<polygon fill="none" stroke="black" points="367.9,-114.869 357.67,-112.114 363.949,-120.647 367.9,-114.869"/>
</g>
<!-- \\MLAImageProcessor -->
<g id="node7" class="node"><title>\\MLAImageProcessor</title>
<a xlink:href="includes.class-mla-image-processor.html" xlink:title="MLAImageProcessor" target="_parent">
<polygon fill="none" stroke="black" points="619.5,-1143.82 488.5,-1143.82 488.5,-1107.82 619.5,-1107.82 619.5,-1143.82"/>
<text text-anchor="middle" x="554" y="-1123.02" font-family="Courier,monospace" font-size="11.00">MLAImageProcessor</text>
</a>
</g>
<!-- \\MLAMutex -->
<g id="node8" class="node"><title>\\MLAMutex</title>
<a xlink:href="includes.class-mla-image-processor.html" xlink:title="MLAMutex" target="_parent">
<polygon fill="none" stroke="black" points="589.5,-1089.82 518.5,-1089.82 518.5,-1053.82 589.5,-1053.82 589.5,-1089.82"/>
<text text-anchor="middle" x="554" y="-1069.02" font-family="Courier,monospace" font-size="11.00">MLAMutex</text>
</a>
</g>
<!-- \\MLA_List_Table -->
<g id="node9" class="node"><title>\\MLA_List_Table</title>
<a xlink:href="includes.class-mla-list-table.html" xlink:title="MLA_List_Table" target="_parent">
<polygon fill="none" stroke="black" points="349.5,-793.819 238.5,-793.819 238.5,-757.819 349.5,-757.819 349.5,-793.819"/>
<text text-anchor="middle" x="294" y="-773.019" font-family="Courier,monospace" font-size="11.00">MLA_List_Table</text>
</a>
</g>
<!-- \\WP_List_Table -->
<g id="node31" class="node"><title>\\WP_List_Table</title>
<ellipse fill="none" stroke="black" cx="72" cy="-388.819" rx="71.4873" ry="18"/>
<text text-anchor="middle" x="72" y="-385.119" font-family="Times New Roman,serif" font-size="14.00" fill="gray">\WP_List_Table</text>
</g>
<!-- \\MLA_List_Table&#45;&gt;\\WP_List_Table -->
<g id="edge7" class="edge"><title>\\MLA_List_Table&#45;&gt;\\WP_List_Table</title>
<path fill="none" stroke="black" d="M238.35,-767.055C230.183,-763.898 222.378,-759.618 216,-753.819 113.708,-660.82 83.7149,-485.596 75.6894,-417.19"/>
<polygon fill="none" stroke="black" points="79.1581,-416.713 74.5823,-407.158 72.2004,-417.481 79.1581,-416.713"/>
</g>
<!-- \\MLA -->
<g id="node10" class="node"><title>\\MLA</title>
<a xlink:href="includes.class-mla-main.html" xlink:title="MLA" target="_parent">
<polygon fill="none" stroke="black" points="581,-1035.82 527,-1035.82 527,-999.819 581,-999.819 581,-1035.82"/>
<text text-anchor="middle" x="554" y="-1015.02" font-family="Courier,monospace" font-size="11.00">MLA</text>
</a>
</g>
<!-- \\MLAModal -->
<g id="node11" class="node"><title>\\MLAModal</title>
<a xlink:href="includes.class-mla-media-modal.html" xlink:title="MLAModal" target="_parent">
<polygon fill="none" stroke="black" points="589.5,-981.819 518.5,-981.819 518.5,-945.819 589.5,-945.819 589.5,-981.819"/>
<text text-anchor="middle" x="554" y="-961.019" font-family="Courier,monospace" font-size="11.00">MLAModal</text>
</a>
</g>
<!-- \\MLAMime -->
<g id="node12" class="node"><title>\\MLAMime</title>
<a xlink:href="includes.class-mla-mime-types.html" xlink:title="MLAMime" target="_parent">
<polygon fill="none" stroke="black" points="586,-927.819 522,-927.819 522,-891.819 586,-891.819 586,-927.819"/>
<text text-anchor="middle" x="554" y="-907.019" font-family="Courier,monospace" font-size="11.00">MLAMime</text>
</a>
</g>
<!-- \\MLAObjects -->
<g id="node13" class="node"><title>\\MLAObjects</title>
<a xlink:href="includes.class-mla-objects.html" xlink:title="MLAObjects" target="_parent">
<polygon fill="none" stroke="black" points="596,-873.819 512,-873.819 512,-837.819 596,-837.819 596,-873.819"/>
<text text-anchor="middle" x="554" y="-853.019" font-family="Courier,monospace" font-size="11.00">MLAObjects</text>
</a>
</g>
<!-- \\MLATextWidget -->
<g id="node14" class="node"><title>\\MLATextWidget</title>
<a xlink:href="includes.class-mla-objects.html" xlink:title="MLATextWidget" target="_parent">
<polygon fill="none" stroke="black" points="606,-495.819 502,-495.819 502,-459.819 606,-459.819 606,-495.819"/>
<text text-anchor="middle" x="554" y="-475.019" font-family="Courier,monospace" font-size="11.00">MLATextWidget</text>
</a>
</g>
<!-- \\WP_Widget -->
<g id="node33" class="node"><title>\\WP_Widget</title>
<ellipse fill="none" stroke="black" cx="294" cy="-47.8192" rx="58.4896" ry="18"/>
<text text-anchor="middle" x="294" y="-44.1192" font-family="Times New Roman,serif" font-size="14.00" fill="gray">\WP_Widget</text>
</g>
<!-- \\MLATextWidget&#45;&gt;\\WP_Widget -->
<g id="edge9" class="edge"><title>\\MLATextWidget&#45;&gt;\\WP_Widget</title>
<path fill="none" stroke="black" d="M501.754,-476.72C481.153,-473.623 458.819,-466.455 444,-450.819 326.956,-327.325 483.085,-203.7 372,-74.8192 367.104,-69.1388 360.94,-64.6531 354.242,-61.111"/>
<polygon fill="none" stroke="black" points="355.399,-57.7922 344.847,-56.842 352.503,-64.1652 355.399,-57.7922"/>
</g>
<!-- \\MLAOptions -->
<g id="node15" class="node"><title>\\MLAOptions</title>
<a xlink:href="includes.class-mla-options.html" xlink:title="MLAOptions" target="_parent">
<polygon fill="none" stroke="black" points="596,-765.819 512,-765.819 512,-729.819 596,-729.819 596,-765.819"/>
<text text-anchor="middle" x="554" y="-745.019" font-family="Courier,monospace" font-size="11.00">MLAOptions</text>
</a>
</g>
<!-- \\MLA_Polylang -->
<g id="node16" class="node"><title>\\MLA_Polylang</title>
<a xlink:href="includes.class-mla-polylang-support.html" xlink:title="MLA_Polylang" target="_parent">
<polygon fill="none" stroke="black" points="603,-711.819 505,-711.819 505,-675.819 603,-675.819 603,-711.819"/>
<text text-anchor="middle" x="554" y="-691.019" font-family="Courier,monospace" font-size="11.00">MLA_Polylang</text>
</a>
</g>
<!-- \\MLASettings -->
<g id="node17" class="node"><title>\\MLASettings</title>
<a xlink:href="includes.class-mla-settings.html" xlink:title="MLASettings" target="_parent">
<polygon fill="none" stroke="black" points="599.5,-657.819 508.5,-657.819 508.5,-621.819 599.5,-621.819 599.5,-657.819"/>
<text text-anchor="middle" x="554" y="-637.019" font-family="Courier,monospace" font-size="11.00">MLASettings</text>
</a>
</g>
<!-- \\MLAShortcodes -->
<g id="node18" class="node"><title>\\MLAShortcodes</title>
<a xlink:href="includes.class-mla-shortcodes.html" xlink:title="MLAShortcodes" target="_parent">
<polygon fill="none" stroke="black" points="606,-603.819 502,-603.819 502,-567.819 606,-567.819 606,-603.819"/>
<text text-anchor="middle" x="554" y="-583.019" font-family="Courier,monospace" font-size="11.00">MLAShortcodes</text>
</a>
</g>
<!-- \\MLA_Thumbnail -->
<g id="node19" class="node"><title>\\MLA_Thumbnail</title>
<a xlink:href="includes.class-mla-thumbnail-generation.html" xlink:title="MLA_Thumbnail" target="_parent">
<polygon fill="none" stroke="black" points="606,-549.819 502,-549.819 502,-513.819 606,-513.819 606,-549.819"/>
<text text-anchor="middle" x="554" y="-529.019" font-family="Courier,monospace" font-size="11.00">MLA_Thumbnail</text>
</a>
</g>
<!-- \\MLA_Upload_List_Table -->
<g id="node20" class="node"><title>\\MLA_Upload_List_Table</title>
<a xlink:href="includes.class-mla-upload-list-table.html" xlink:title="MLA_Upload_List_Table" target="_parent">
<polygon fill="none" stroke="black" points="633,-441.819 475,-441.819 475,-405.819 633,-405.819 633,-441.819"/>
<text text-anchor="middle" x="554" y="-421.019" font-family="Courier,monospace" font-size="11.00">MLA_Upload_List_Table</text>
</a>
</g>
<!-- \\MLA_Upload_List_Table&#45;&gt;\\WP_List_Table -->
<g id="edge11" class="edge"><title>\\MLA_Upload_List_Table&#45;&gt;\\WP_List_Table</title>
<path fill="none" stroke="black" d="M474.961,-416.12C463.341,-411.896 452.449,-405.734 444,-396.819 326.956,-273.325 489.099,-144.261 372,-20.8192 347.741,4.7537 330.187,0.261052 295,-1.81917"/>
</g>
<!-- \\MLA_Upload_Optional_List_Table -->
<g id="node21" class="node"><title>\\MLA_Upload_Optional_List_Table</title>
<a xlink:href="includes.class-mla-upload-optional-list-table.html" xlink:title="MLA_Upload_Optional_List_Table" target="_parent">
<polygon fill="none" stroke="black" points="663.5,-387.819 444.5,-387.819 444.5,-351.819 663.5,-351.819 663.5,-387.819"/>
<text text-anchor="middle" x="554" y="-367.019" font-family="Courier,monospace" font-size="11.00">MLA_Upload_Optional_List_Table</text>
</a>
</g>
<!-- \\MLA_Upload_Optional_List_Table&#45;&gt;\\WP_List_Table -->
<g id="edge13" class="edge"><title>\\MLA_Upload_Optional_List_Table&#45;&gt;\\WP_List_Table</title>
<path fill="none" stroke="black" d="M454.753,-351.731C450.886,-349.121 447.271,-346.165 444,-342.819 341.497,-237.948 474.55,-125.644 372,-20.8192 347.35,4.37728 330.187,0.261052 295,-1.81917"/>
</g>
<!-- \\MLA_View_List_Table -->
<g id="node22" class="node"><title>\\MLA_View_List_Table</title>
<a xlink:href="includes.class-mla-view-list-table.html" xlink:title="MLA_View_List_Table" target="_parent">
<polygon fill="none" stroke="black" points="626.5,-279.819 481.5,-279.819 481.5,-243.819 626.5,-243.819 626.5,-279.819"/>
<text text-anchor="middle" x="554" y="-259.019" font-family="Courier,monospace" font-size="11.00">MLA_View_List_Table</text>
</a>
</g>
<!-- \\MLA_View_List_Table&#45;&gt;\\WP_List_Table -->
<g id="edge15" class="edge"><title>\\MLA_View_List_Table&#45;&gt;\\WP_List_Table</title>
<path fill="none" stroke="black" d="M481.297,-254.852C467.644,-250.715 454.394,-244.397 444,-234.819 370.202,-166.819 445.828,-88.7859 372,-20.8192 346.067,3.05466 330.187,0.261052 295,-1.81917"/>
<path fill="none" stroke="black" d="M293,-1.81917C257.813,-3.89939 242.476,2.45092 216,-20.8192 111.175,-112.951 82.6362,-291.316 75.3453,-360.464"/>
<polygon fill="none" stroke="black" points="71.8446,-360.3 74.3491,-370.594 78.811,-360.985 71.8446,-360.3"/>
</g>
<!-- \\MLA_WPML -->
<g id="node23" class="node"><title>\\MLA_WPML</title>
<a xlink:href="includes.class-mla-wpml-support.html" xlink:title="MLA_WPML" target="_parent">
<polygon fill="none" stroke="black" points="589.5,-333.819 518.5,-333.819 518.5,-297.819 589.5,-297.819 589.5,-333.819"/>
<text text-anchor="middle" x="554" y="-313.019" font-family="Courier,monospace" font-size="11.00">MLA_WPML</text>
</a>
</g>
<!-- \\MLA_WPML_List_Table -->
<g id="node24" class="node"><title>\\MLA_WPML_List_Table</title>
<a xlink:href="includes.class-mla-wpml-support.html" xlink:title="MLA_WPML_List_Table" target="_parent">
<polygon fill="none" stroke="black" points="626.5,-1413.82 481.5,-1413.82 481.5,-1377.82 626.5,-1377.82 626.5,-1413.82"/>
<text text-anchor="middle" x="554" y="-1393.02" font-family="Courier,monospace" font-size="11.00">MLA_WPML_List_Table</text>
</a>
</g>
<!-- \\MLA_WPML_List_Table&#45;&gt;\\MLA_List_Table -->
<g id="edge17" class="edge"><title>\\MLA_WPML_List_Table&#45;&gt;\\MLA_List_Table</title>
<path fill="none" stroke="black" d="M481.27,-1389.64C467.456,-1385.47 454.149,-1378.93 444,-1368.82 361.588,-1286.68 311.058,-910.368 298.24,-803.935"/>
<polygon fill="none" stroke="black" points="301.708,-803.464 297.053,-793.947 294.757,-804.291 301.708,-803.464"/>
</g>
<!-- \\MLA_WPML_Table -->
<g id="node25" class="node"><title>\\MLA_WPML_Table</title>
<a xlink:href="includes.class-mla-wpml-support.html" xlink:title="MLA_WPML_Table" target="_parent">
<polygon fill="none" stroke="black" points="609.5,-225.819 498.5,-225.819 498.5,-189.819 609.5,-189.819 609.5,-225.819"/>
<text text-anchor="middle" x="554" y="-205.019" font-family="Courier,monospace" font-size="11.00">MLA_WPML_Table</text>
</a>
</g>
<!-- \\MLATest -->
<g id="node26" class="node"><title>\\MLATest</title>
<a xlink:href="tests.class-mla-tests.html" xlink:title="MLATest" target="_parent">
<polygon fill="none" stroke="black" points="586,-171.819 522,-171.819 522,-135.819 586,-135.819 586,-171.819"/>
<text text-anchor="middle" x="554" y="-151.019" font-family="Courier,monospace" font-size="11.00">MLATest</text>
</a>
</g>
</g>
</svg>
