<?xml version="1.0" encoding="UTF-8" standalone="no"?>
<!DOCTYPE svg PUBLIC "-//W3C//DTD SVG 1.1//EN"
 "http://www.w3.org/Graphics/SVG/1.1/DTD/svg11.dtd">
<!-- Generated by graphviz version 2.28.0 (20110507.0327)
 -->
<!-- Title: G Pages: 1 -->
<svg width="688pt" height="1837pt"
 viewBox="0.00 0.00 688.00 1836.55" xmlns="http://www.w3.org/2000/svg" xmlns:xlink="http://www.w3.org/1999/xlink">
<g id="graph1" class="graph" transform="scale(1 1) rotate(0) translate(4 1832.55)">
<title>G</title>
<polygon fill="white" stroke="white" points="-4,5 -4,-1832.55 685,-1832.55 685,5 -4,5"/>
<g id="graph2" class="cluster"><title>cluster_global</title>
<polyline fill="none" stroke="gray" points="242,-128.547 660,-128.547 "/>
<path fill="none" stroke="gray" d="M660,-128.547C666,-128.547 672,-134.547 672,-140.547"/>
<polyline fill="none" stroke="gray" points="672,-140.547 672,-1808.55 "/>
<path fill="none" stroke="gray" d="M672,-1808.55C672,-1814.55 666,-1820.55 660,-1820.55"/>
<polyline fill="none" stroke="gray" points="660,-1820.55 242,-1820.55 "/>
<path fill="none" stroke="gray" d="M242,-1820.55C236,-1820.55 230,-1814.55 230,-1808.55"/>
<polyline fill="none" stroke="gray" points="230,-1808.55 230,-140.547 "/>
<path fill="none" stroke="gray" d="M230,-140.547C230,-134.547 236,-128.547 242,-128.547"/>
<text text-anchor="middle" x="451" y="-1807.75" font-family="Times New Roman,serif" font-size="11.00" fill="gray">global</text>
</g>
<!-- \\MNA_Pad_Counts_Walker -->
<g id="node2" class="node"><title>\\MNA_Pad_Counts_Walker</title>
<a xlink:href="examples.twentytwelve-mla.content-tosca30-dropdown.html" xlink:title="MNA_Pad_Counts_Walker" target="_parent">
<polygon fill="none" stroke="black" points="633,-1630.55 475,-1630.55 475,-1594.55 633,-1594.55 633,-1630.55"/>
<text text-anchor="middle" x="554" y="-1609.75" font-family="Courier,monospace" font-size="11.00">MNA_Pad_Counts_Walker</text>
</a>
</g>
<!-- \\Walker_Category -->
<g id="node35" class="node"><title>\\Walker_Category</title>
<ellipse fill="none" stroke="black" cx="294" cy="-102.547" rx="77.1866" ry="18"/>
<text text-anchor="middle" x="294" y="-98.8471" font-family="Times New Roman,serif" font-size="14.00" fill="gray">\Walker_Category</text>
</g>
<!-- \\MNA_Pad_Counts_Walker&#45;&gt;\\Walker_Category -->
<g id="edge3" class="edge"><title>\\MNA_Pad_Counts_Walker&#45;&gt;\\Walker_Category</title>
<path fill="none" stroke="black" d="M474.96,-1606.22C463.043,-1601.89 452.053,-1595.33 444,-1585.55 237.436,-1334.56 574.079,-379.161 372,-124.547 370.298,-122.403 368.403,-120.459 366.354,-118.696"/>
<polygon fill="none" stroke="black" points="367.987,-115.57 357.772,-112.759 364.005,-121.327 367.987,-115.57"/>
</g>
<!-- \\MLA_Ajax -->
<g id="node3" class="node"><title>\\MLA_Ajax</title>
<a xlink:href="includes.class-mla-ajax.html" xlink:title="MLA_Ajax" target="_parent">
<polygon fill="none" stroke="black" points="589.5,-1738.55 518.5,-1738.55 518.5,-1702.55 589.5,-1702.55 589.5,-1738.55"/>
<text text-anchor="middle" x="554" y="-1717.75" font-family="Courier,monospace" font-size="11.00">MLA_Ajax</text>
</a>
</g>
<!-- \\MLACore -->
<g id="node4" class="node"><title>\\MLACore</title>
<a xlink:href="includes.class-mla-core.html" xlink:title="MLACore" target="_parent">
<polygon fill="none" stroke="black" points="586,-1684.55 522,-1684.55 522,-1648.55 586,-1648.55 586,-1684.55"/>
<text text-anchor="middle" x="554" y="-1663.75" font-family="Courier,monospace" font-size="11.00">MLACore</text>
</a>
</g>
<!-- \\MLA_Checklist_Walker -->
<g id="node5" class="node"><title>\\MLA_Checklist_Walker</title>
<a xlink:href="includes.class-mla-core.html" xlink:title="MLA_Checklist_Walker" target="_parent">
<polygon fill="none" stroke="black" points="630,-874.547 478,-874.547 478,-838.547 630,-838.547 630,-874.547"/>
<text text-anchor="middle" x="554" y="-853.747" font-family="Courier,monospace" font-size="11.00">MLA_Checklist_Walker</text>
</a>
</g>
<!-- \\MLA_Checklist_Walker&#45;&gt;\\Walker_Category -->
<g id="edge5" class="edge"><title>\\MLA_Checklist_Walker&#45;&gt;\\Walker_Category</title>
<path fill="none" stroke="black" d="M477.881,-850.728C464.975,-846.446 452.882,-839.779 444,-829.547 237.534,-591.695 574.214,-366.024 372,-124.547 370.243,-122.449 368.3,-120.543 366.212,-118.812"/>
<polygon fill="none" stroke="black" points="367.766,-115.64 357.513,-112.971 363.864,-121.451 367.766,-115.64"/>
</g>
<!-- \\MLAPDF -->
<g id="node6" class="node"><title>\\MLAPDF</title>
<a xlink:href="includes.class-mla-data-pdf.html" xlink:title="MLAPDF" target="_parent">
<polygon fill="none" stroke="black" points="582.5,-1576.55 525.5,-1576.55 525.5,-1540.55 582.5,-1540.55 582.5,-1576.55"/>
<text text-anchor="middle" x="554" y="-1555.75" font-family="Courier,monospace" font-size="11.00">MLAPDF</text>
</a>
</g>
<!-- \\MLAQuery -->
<g id="node7" class="node"><title>\\MLAQuery</title>
<a xlink:href="includes.class-mla-data-query.html" xlink:title="MLAQuery" target="_parent">
<polygon fill="none" stroke="black" points="589.5,-1522.55 518.5,-1522.55 518.5,-1486.55 589.5,-1486.55 589.5,-1522.55"/>
<text text-anchor="middle" x="554" y="-1501.75" font-family="Courier,monospace" font-size="11.00">MLAQuery</text>
</a>
</g>
<!-- \\MLAReferences -->
<g id="node8" class="node"><title>\\MLAReferences</title>
<a xlink:href="includes.class-mla-data-references.html" xlink:title="MLAReferences" target="_parent">
<polygon fill="none" stroke="black" points="606,-1468.55 502,-1468.55 502,-1432.55 606,-1432.55 606,-1468.55"/>
<text text-anchor="middle" x="554" y="-1447.75" font-family="Courier,monospace" font-size="11.00">MLAReferences</text>
</a>
</g>
<!-- \\MLAData_source -->
<g id="node9" class="node"><title>\\MLAData_source</title>
<a xlink:href="includes.class-mla-data-source.html" xlink:title="MLAData_source" target="_parent">
<polygon fill="none" stroke="black" points="609.5,-1414.55 498.5,-1414.55 498.5,-1378.55 609.5,-1378.55 609.5,-1414.55"/>
<text text-anchor="middle" x="554" y="-1393.75" font-family="Courier,monospace" font-size="11.00">MLAData_source</text>
</a>
</g>
<!-- \\MLAData -->
<g id="node10" class="node"><title>\\MLAData</title>
<a xlink:href="includes.class-mla-data.html" xlink:title="MLAData" target="_parent">
<polygon fill="none" stroke="black" points="586,-1360.55 522,-1360.55 522,-1324.55 586,-1324.55 586,-1360.55"/>
<text text-anchor="middle" x="554" y="-1339.75" font-family="Courier,monospace" font-size="11.00">MLAData</text>
</a>
</g>
<!-- \\MLAEdit -->
<g id="node11" class="node"><title>\\MLAEdit</title>
<a xlink:href="includes.class-mla-edit-media.html" xlink:title="MLAEdit" target="_parent">
<polygon fill="none" stroke="black" points="586,-1306.55 522,-1306.55 522,-1270.55 586,-1270.55 586,-1306.55"/>
<text text-anchor="middle" x="554" y="-1285.75" font-family="Courier,monospace" font-size="11.00">MLAEdit</text>
</a>
</g>
<!-- \\MLAImageProcessor -->
<g id="node12" class="node"><title>\\MLAImageProcessor</title>
<a xlink:href="includes.class-mla-image-processor.html" xlink:title="MLAImageProcessor" target="_parent">
<polygon fill="none" stroke="black" points="619.5,-1252.55 488.5,-1252.55 488.5,-1216.55 619.5,-1216.55 619.5,-1252.55"/>
<text text-anchor="middle" x="554" y="-1231.75" font-family="Courier,monospace" font-size="11.00">MLAImageProcessor</text>
</a>
</g>
<!-- \\MLAMutex -->
<g id="node13" class="node"><title>\\MLAMutex</title>
<a xlink:href="includes.class-mla-image-processor.html" xlink:title="MLAMutex" target="_parent">
<polygon fill="none" stroke="black" points="589.5,-1198.55 518.5,-1198.55 518.5,-1162.55 589.5,-1162.55 589.5,-1198.55"/>
<text text-anchor="middle" x="554" y="-1177.75" font-family="Courier,monospace" font-size="11.00">MLAMutex</text>
</a>
</g>
<!-- \\MLA_List_Table -->
<g id="node14" class="node"><title>\\MLA_List_Table</title>
<a xlink:href="includes.class-mla-list-table.html" xlink:title="MLA_List_Table" target="_parent">
<polygon fill="none" stroke="black" points="349.5,-983.547 238.5,-983.547 238.5,-947.547 349.5,-947.547 349.5,-983.547"/>
<text text-anchor="middle" x="294" y="-962.747" font-family="Courier,monospace" font-size="11.00">MLA_List_Table</text>
</a>
</g>
<!-- \\WP_List_Table -->
<g id="node38" class="node"><title>\\WP_List_Table</title>
<ellipse fill="none" stroke="black" cx="72" cy="-483.547" rx="71.4873" ry="18"/>
<text text-anchor="middle" x="72" y="-479.847" font-family="Times New Roman,serif" font-size="14.00" fill="gray">\WP_List_Table</text>
</g>
<!-- \\MLA_List_Table&#45;&gt;\\WP_List_Table -->
<g id="edge7" class="edge"><title>\\MLA_List_Table&#45;&gt;\\WP_List_Table</title>
<path fill="none" stroke="black" d="M238.377,-957.326C230.109,-954.11 222.265,-949.669 216,-943.547 90.8895,-821.294 74.7593,-591.737 73.0449,-511.83"/>
<polygon fill="none" stroke="black" points="76.5407,-511.52 72.8888,-501.575 69.5415,-511.627 76.5407,-511.52"/>
</g>
<!-- \\MLA -->
<g id="node15" class="node"><title>\\MLA</title>
<a xlink:href="includes.class-mla-main.html" xlink:title="MLA" target="_parent">
<polygon fill="none" stroke="black" points="581,-1144.55 527,-1144.55 527,-1108.55 581,-1108.55 581,-1144.55"/>
<text text-anchor="middle" x="554" y="-1123.75" font-family="Courier,monospace" font-size="11.00">MLA</text>
</a>
</g>
<!-- \\MLAModal_Ajax -->
<g id="node16" class="node"><title>\\MLAModal_Ajax</title>
<a xlink:href="includes.class-mla-media-modal-ajax.html" xlink:title="MLAModal_Ajax" target="_parent">
<polygon fill="none" stroke="black" points="606,-1090.55 502,-1090.55 502,-1054.55 606,-1054.55 606,-1090.55"/>
<text text-anchor="middle" x="554" y="-1069.75" font-family="Courier,monospace" font-size="11.00">MLAModal_Ajax</text>
</a>
</g>
<!-- \\MLAModal -->
<g id="node17" class="node"><title>\\MLAModal</title>
<a xlink:href="includes.class-mla-media-modal.html" xlink:title="MLAModal" target="_parent">
<polygon fill="none" stroke="black" points="589.5,-1036.55 518.5,-1036.55 518.5,-1000.55 589.5,-1000.55 589.5,-1036.55"/>
<text text-anchor="middle" x="554" y="-1015.75" font-family="Courier,monospace" font-size="11.00">MLAModal</text>
</a>
</g>
<!-- \\MLAMime -->
<g id="node18" class="node"><title>\\MLAMime</title>
<a xlink:href="includes.class-mla-mime-types.html" xlink:title="MLAMime" target="_parent">
<polygon fill="none" stroke="black" points="586,-982.547 522,-982.547 522,-946.547 586,-946.547 586,-982.547"/>
<text text-anchor="middle" x="554" y="-961.747" font-family="Courier,monospace" font-size="11.00">MLAMime</text>
</a>
</g>
<!-- \\MLAObjects -->
<g id="node19" class="node"><title>\\MLAObjects</title>
<a xlink:href="includes.class-mla-objects.html" xlink:title="MLAObjects" target="_parent">
<polygon fill="none" stroke="black" points="596,-928.547 512,-928.547 512,-892.547 596,-892.547 596,-928.547"/>
<text text-anchor="middle" x="554" y="-907.747" font-family="Courier,monospace" font-size="11.00">MLAObjects</text>
</a>
</g>
<!-- \\MLATextWidget -->
<g id="node20" class="node"><title>\\MLATextWidget</title>
<a xlink:href="includes.class-mla-objects.html" xlink:title="MLATextWidget" target="_parent">
<polygon fill="none" stroke="black" points="606,-496.547 502,-496.547 502,-460.547 606,-460.547 606,-496.547"/>
<text text-anchor="middle" x="554" y="-475.747" font-family="Courier,monospace" font-size="11.00">MLATextWidget</text>
</a>
</g>
<!-- \\WP_Widget -->
<g id="node40" class="node"><title>\\WP_Widget</title>
<ellipse fill="none" stroke="black" cx="294" cy="-48.5471" rx="58.4896" ry="18"/>
<text text-anchor="middle" x="294" y="-44.8471" font-family="Times New Roman,serif" font-size="14.00" fill="gray">\WP_Widget</text>
</g>
<!-- \\MLATextWidget&#45;&gt;\\WP_Widget -->
<g id="edge9" class="edge"><title>\\MLATextWidget&#45;&gt;\\WP_Widget</title>
<path fill="none" stroke="black" d="M501.754,-477.448C481.153,-474.351 458.819,-467.183 444,-451.547 326.956,-328.053 483.085,-204.428 372,-75.5471 367.104,-69.8667 360.94,-65.381 354.242,-61.8389"/>
<polygon fill="none" stroke="black" points="355.399,-58.5201 344.847,-57.5699 352.503,-64.8931 355.399,-58.5201"/>
</g>
<!-- \\MLAOptions -->
<g id="node21" class="node"><title>\\MLAOptions</title>
<a xlink:href="includes.class-mla-options.html" xlink:title="MLAOptions" target="_parent">
<polygon fill="none" stroke="black" points="596,-820.547 512,-820.547 512,-784.547 596,-784.547 596,-820.547"/>
<text text-anchor="middle" x="554" y="-799.747" font-family="Courier,monospace" font-size="11.00">MLAOptions</text>
</a>
</g>
<!-- \\MLA_Polylang -->
<g id="node22" class="node"><title>\\MLA_Polylang</title>
<a xlink:href="includes.class-mla-polylang-support.html" xlink:title="MLA_Polylang" target="_parent">
<polygon fill="none" stroke="black" points="603,-766.547 505,-766.547 505,-730.547 603,-730.547 603,-766.547"/>
<text text-anchor="middle" x="554" y="-745.747" font-family="Courier,monospace" font-size="11.00">MLA_Polylang</text>
</a>
</g>
<!-- \\MLASettings -->
<g id="node23" class="node"><title>\\MLASettings</title>
<a xlink:href="includes.class-mla-settings.html" xlink:title="MLASettings" target="_parent">
<polygon fill="none" stroke="black" points="599.5,-712.547 508.5,-712.547 508.5,-676.547 599.5,-676.547 599.5,-712.547"/>
<text text-anchor="middle" x="554" y="-691.747" font-family="Courier,monospace" font-size="11.00">MLASettings</text>
</a>
</g>
<!-- \\MLAShortcode_Support -->
<g id="node24" class="node"><title>\\MLAShortcode_Support</title>
<a xlink:href="includes.class-mla-shortcode-support.html" xlink:title="MLAShortcode_Support" target="_parent">
<polygon fill="none" stroke="black" points="630,-658.547 478,-658.547 478,-622.547 630,-622.547 630,-658.547"/>
<text text-anchor="middle" x="554" y="-637.747" font-family="Courier,monospace" font-size="11.00">MLAShortcode_Support</text>
</a>
</g>
<!-- \\MLAShortcodes -->
<g id="node25" class="node"><title>\\MLAShortcodes</title>
<a xlink:href="includes.class-mla-shortcodes.html" xlink:title="MLAShortcodes" target="_parent">
<polygon fill="none" stroke="black" points="606,-604.547 502,-604.547 502,-568.547 606,-568.547 606,-604.547"/>
<text text-anchor="middle" x="554" y="-583.747" font-family="Courier,monospace" font-size="11.00">MLAShortcodes</text>
</a>
</g>
<!-- \\MLA_Thumbnail -->
<g id="node26" class="node"><title>\\MLA_Thumbnail</title>
<a xlink:href="includes.class-mla-thumbnail-generation.html" xlink:title="MLA_Thumbnail" target="_parent">
<polygon fill="none" stroke="black" points="606,-550.547 502,-550.547 502,-514.547 606,-514.547 606,-550.547"/>
<text text-anchor="middle" x="554" y="-529.747" font-family="Courier,monospace" font-size="11.00">MLA_Thumbnail</text>
</a>
</g>
<!-- \\MLA_Upload_List_Table -->
<g id="node27" class="node"><title>\\MLA_Upload_List_Table</title>
<a xlink:href="includes.class-mla-upload-list-table.html" xlink:title="MLA_Upload_List_Table" target="_parent">
<polygon fill="none" stroke="black" points="633,-442.547 475,-442.547 475,-406.547 633,-406.547 633,-442.547"/>
<text text-anchor="middle" x="554" y="-421.747" font-family="Courier,monospace" font-size="11.00">MLA_Upload_List_Table</text>
</a>
</g>
<!-- \\MLA_Upload_List_Table&#45;&gt;\\WP_List_Table -->
<g id="edge11" class="edge"><title>\\MLA_Upload_List_Table&#45;&gt;\\WP_List_Table</title>
<path fill="none" stroke="black" d="M474.961,-416.848C463.341,-412.624 452.449,-406.462 444,-397.547 326.956,-274.053 489.099,-144.989 372,-21.5471 347.741,4.0258 330.061,1.086 295,-2.54707"/>
</g>
<!-- \\MLA_Upload_Optional_List_Table -->
<g id="node28" class="node"><title>\\MLA_Upload_Optional_List_Table</title>
<a xlink:href="includes.class-mla-upload-optional-list-table.html" xlink:title="MLA_Upload_Optional_List_Table" target="_parent">
<polygon fill="none" stroke="black" points="663.5,-388.547 444.5,-388.547 444.5,-352.547 663.5,-352.547 663.5,-388.547"/>
<text text-anchor="middle" x="554" y="-367.747" font-family="Courier,monospace" font-size="11.00">MLA_Upload_Optional_List_Table</text>
</a>
</g>
<!-- \\MLA_Upload_Optional_List_Table&#45;&gt;\\WP_List_Table -->
<g id="edge13" class="edge"><title>\\MLA_Upload_Optional_List_Table&#45;&gt;\\WP_List_Table</title>
<path fill="none" stroke="black" d="M454.753,-352.459C450.886,-349.849 447.271,-346.893 444,-343.547 341.497,-238.676 474.55,-126.372 372,-21.5471 347.35,3.64939 330.061,1.086 295,-2.54707"/>
</g>
<!-- \\MLA_View_List_Table -->
<g id="node29" class="node"><title>\\MLA_View_List_Table</title>
<a xlink:href="includes.class-mla-view-list-table.html" xlink:title="MLA_View_List_Table" target="_parent">
<polygon fill="none" stroke="black" points="626.5,-280.547 481.5,-280.547 481.5,-244.547 626.5,-244.547 626.5,-280.547"/>
<text text-anchor="middle" x="554" y="-259.747" font-family="Courier,monospace" font-size="11.00">MLA_View_List_Table</text>
</a>
</g>
<!-- \\MLA_View_List_Table&#45;&gt;\\WP_List_Table -->
<g id="edge15" class="edge"><title>\\MLA_View_List_Table&#45;&gt;\\WP_List_Table</title>
<path fill="none" stroke="black" d="M481.297,-255.58C467.644,-251.443 454.394,-245.125 444,-235.547 370.202,-167.547 445.828,-89.5138 372,-21.5471 346.067,2.32676 330.061,1.086 295,-2.54707"/>
<path fill="none" stroke="black" d="M293,-2.54707C257.939,-6.18014 241.64,2.64111 216,-21.5471 88.2557,-142.059 73.7955,-374.055 72.7804,-454.913"/>
<polygon fill="none" stroke="black" points="69.2782,-455.27 72.716,-465.292 76.2781,-455.314 69.2782,-455.27"/>
</g>
<!-- \\MLA_WPML -->
<g id="node30" class="node"><title>\\MLA_WPML</title>
<a xlink:href="includes.class-mla-wpml-support.html" xlink:title="MLA_WPML" target="_parent">
<polygon fill="none" stroke="black" points="589.5,-334.547 518.5,-334.547 518.5,-298.547 589.5,-298.547 589.5,-334.547"/>
<text text-anchor="middle" x="554" y="-313.747" font-family="Courier,monospace" font-size="11.00">MLA_WPML</text>
</a>
</g>
<!-- \\MLA_WPML_List_Table -->
<g id="node31" class="node"><title>\\MLA_WPML_List_Table</title>
<a xlink:href="includes.class-mla-wpml-support.html" xlink:title="MLA_WPML_List_Table" target="_parent">
<polygon fill="none" stroke="black" points="626.5,-1792.55 481.5,-1792.55 481.5,-1756.55 626.5,-1756.55 626.5,-1792.55"/>
<text text-anchor="middle" x="554" y="-1771.75" font-family="Courier,monospace" font-size="11.00">MLA_WPML_List_Table</text>
</a>
</g>
<!-- \\MLA_WPML_List_Table&#45;&gt;\\MLA_List_Table -->
<g id="edge17" class="edge"><title>\\MLA_WPML_List_Table&#45;&gt;\\MLA_List_Table</title>
<path fill="none" stroke="black" d="M481.38,-1768.98C467.391,-1764.79 453.986,-1758.09 444,-1747.55 337.584,-1635.16 303.323,-1120.86 296.416,-993.927"/>
<polygon fill="none" stroke="black" points="299.906,-993.636 295.881,-983.836 292.915,-994.007 299.906,-993.636"/>
</g>
<!-- \\MLA_WPML_Table -->
<g id="node32" class="node"><title>\\MLA_WPML_Table</title>
<a xlink:href="includes.class-mla-wpml-support.html" xlink:title="MLA_WPML_Table" target="_parent">
<polygon fill="none" stroke="black" points="609.5,-226.547 498.5,-226.547 498.5,-190.547 609.5,-190.547 609.5,-226.547"/>
<text text-anchor="middle" x="554" y="-205.747" font-family="Courier,monospace" font-size="11.00">MLA_WPML_Table</text>
</a>
</g>
<!-- \\MLATest -->
<g id="node33" class="node"><title>\\MLATest</title>
<a xlink:href="tests.class-mla-tests.html" xlink:title="MLATest" target="_parent">
<polygon fill="none" stroke="black" points="586,-172.547 522,-172.547 522,-136.547 586,-136.547 586,-172.547"/>
<text text-anchor="middle" x="554" y="-151.747" font-family="Courier,monospace" font-size="11.00">MLATest</text>
</a>
</g>
</g>
</svg>
