<?xml version="1.0" encoding="UTF-8" standalone="no"?>
<!DOCTYPE svg PUBLIC "-//W3C//DTD SVG 1.1//EN"
 "http://www.w3.org/Graphics/SVG/1.1/DTD/svg11.dtd">
<!-- Generated by graphviz version 2.28.0 (20110507.0327)
 -->
<!-- Title: G Pages: 1 -->
<svg width="730pt" height="1946pt"
 viewBox="0.00 0.00 730.00 1946.47" xmlns="http://www.w3.org/2000/svg" xmlns:xlink="http://www.w3.org/1999/xlink">
<g id="graph1" class="graph" transform="scale(1 1) rotate(0) translate(4 1942.47)">
<title>G</title>
<polygon fill="white" stroke="white" points="-4,5 -4,-1942.47 727,-1942.47 727,5 -4,5"/>
<g id="graph2" class="cluster"><title>cluster_global</title>
<polyline fill="none" stroke="gray" points="263,-184.471 702,-184.471 "/>
<path fill="none" stroke="gray" d="M702,-184.471C708,-184.471 714,-190.471 714,-196.471"/>
<polyline fill="none" stroke="gray" points="714,-196.471 714,-1918.47 "/>
<path fill="none" stroke="gray" d="M714,-1918.47C714,-1924.47 708,-1930.47 702,-1930.47"/>
<polyline fill="none" stroke="gray" points="702,-1930.47 263,-1930.47 "/>
<path fill="none" stroke="gray" d="M263,-1930.47C257,-1930.47 251,-1924.47 251,-1918.47"/>
<polyline fill="none" stroke="gray" points="251,-1918.47 251,-196.471 "/>
<path fill="none" stroke="gray" d="M251,-196.471C251,-190.471 257,-184.471 263,-184.471"/>
<text text-anchor="middle" x="482.5" y="-1917.67" font-family="Times New Roman,serif" font-size="11.00" fill="gray">global</text>
</g>
<!-- \\MNA_Pad_Counts_Walker -->
<g id="node2" class="node"><title>\\MNA_Pad_Counts_Walker</title>
<a xlink:href="examples.twentytwelve-mla.content-tosca30-dropdown.html" xlink:title="MNA_Pad_Counts_Walker" target="_parent">
<polygon fill="none" stroke="black" points="675,-1686.47 517,-1686.47 517,-1650.47 675,-1650.47 675,-1686.47"/>
<text text-anchor="middle" x="596" y="-1665.67" font-family="Courier,monospace" font-size="11.00">MNA_Pad_Counts_Walker</text>
</a>
</g>
<!-- \\Walker_Category -->
<g id="node36" class="node"><title>\\Walker_Category</title>
<ellipse fill="none" stroke="black" cx="315" cy="-158.471" rx="77.1866" ry="18"/>
<text text-anchor="middle" x="315" y="-154.771" font-family="Times New Roman,serif" font-size="14.00" fill="gray">\Walker_Category</text>
</g>
<!-- \\MNA_Pad_Counts_Walker&#45;&gt;\\Walker_Category -->
<g id="edge3" class="edge"><title>\\MNA_Pad_Counts_Walker&#45;&gt;\\Walker_Category</title>
<path fill="none" stroke="black" d="M516.96,-1662.15C505.043,-1657.81 494.053,-1651.26 486,-1641.47 279.436,-1390.48 623.311,-429.174 414,-180.471 409.726,-175.393 404.557,-171.339 398.853,-168.116"/>
<polygon fill="none" stroke="black" points="400.039,-164.806 389.501,-163.708 397.055,-171.138 400.039,-164.806"/>
</g>
<!-- \\CPAC_Storage_Model_MLA -->
<g id="node3" class="node"><title>\\CPAC_Storage_Model_MLA</title>
<a xlink:href="includes.class-mla-admin-columns-support.html" xlink:title="CPAC_Storage_Model_MLA" target="_parent">
<polygon fill="none" stroke="black" points="678.5,-930.471 513.5,-930.471 513.5,-894.471 678.5,-894.471 678.5,-930.471"/>
<text text-anchor="middle" x="596" y="-909.671" font-family="Courier,monospace" font-size="11.00">CPAC_Storage_Model_MLA</text>
</a>
</g>
<!-- \\CPAC_Storage_Model -->
<g id="node38" class="node"><title>\\CPAC_Storage_Model</title>
<ellipse fill="none" stroke="black" cx="315" cy="-104.471" rx="98.5829" ry="18"/>
<text text-anchor="middle" x="315" y="-100.771" font-family="Times New Roman,serif" font-size="14.00" fill="gray">\CPAC_Storage_Model</text>
</g>
<!-- \\CPAC_Storage_Model_MLA&#45;&gt;\\CPAC_Storage_Model -->
<g id="edge5" class="edge"><title>\\CPAC_Storage_Model_MLA&#45;&gt;\\CPAC_Storage_Model</title>
<path fill="none" stroke="black" d="M513.231,-904.258C502.852,-899.999 493.321,-893.961 486,-885.471 376.082,-758 522.25,-260.362 414,-131.471 410.542,-127.354 406.519,-123.834 402.114,-120.828"/>
<polygon fill="none" stroke="black" points="403.626,-117.658 393.221,-115.658 400.107,-123.71 403.626,-117.658"/>
</g>
<!-- \\MLA_Ajax -->
<g id="node4" class="node"><title>\\MLA_Ajax</title>
<a xlink:href="includes.class-mla-ajax.html" xlink:title="MLA_Ajax" target="_parent">
<polygon fill="none" stroke="black" points="631.5,-1794.47 560.5,-1794.47 560.5,-1758.47 631.5,-1758.47 631.5,-1794.47"/>
<text text-anchor="middle" x="596" y="-1773.67" font-family="Courier,monospace" font-size="11.00">MLA_Ajax</text>
</a>
</g>
<!-- \\MLACore -->
<g id="node5" class="node"><title>\\MLACore</title>
<a xlink:href="includes.class-mla-core.html" xlink:title="MLACore" target="_parent">
<polygon fill="none" stroke="black" points="628,-1740.47 564,-1740.47 564,-1704.47 628,-1704.47 628,-1740.47"/>
<text text-anchor="middle" x="596" y="-1719.67" font-family="Courier,monospace" font-size="11.00">MLACore</text>
</a>
</g>
<!-- \\MLA_Checklist_Walker -->
<g id="node6" class="node"><title>\\MLA_Checklist_Walker</title>
<a xlink:href="includes.class-mla-core.html" xlink:title="MLA_Checklist_Walker" target="_parent">
<polygon fill="none" stroke="black" points="672,-1848.47 520,-1848.47 520,-1812.47 672,-1812.47 672,-1848.47"/>
<text text-anchor="middle" x="596" y="-1827.67" font-family="Courier,monospace" font-size="11.00">MLA_Checklist_Walker</text>
</a>
</g>
<!-- \\MLA_Checklist_Walker&#45;&gt;\\Walker_Category -->
<g id="edge7" class="edge"><title>\\MLA_Checklist_Walker&#45;&gt;\\Walker_Category</title>
<path fill="none" stroke="black" d="M519.963,-1825.24C506.886,-1820.93 494.708,-1814.1 486,-1803.47 371.634,-1663.81 529.894,-318.864 414,-180.471 409.739,-175.383 404.578,-171.321 398.88,-168.093"/>
<polygon fill="none" stroke="black" points="400.072,-164.786 389.535,-163.68 397.083,-171.115 400.072,-164.786"/>
</g>
<!-- \\MLAPDF -->
<g id="node7" class="node"><title>\\MLAPDF</title>
<a xlink:href="includes.class-mla-data-pdf.html" xlink:title="MLAPDF" target="_parent">
<polygon fill="none" stroke="black" points="624.5,-1632.47 567.5,-1632.47 567.5,-1596.47 624.5,-1596.47 624.5,-1632.47"/>
<text text-anchor="middle" x="596" y="-1611.67" font-family="Courier,monospace" font-size="11.00">MLAPDF</text>
</a>
</g>
<!-- \\MLAQuery -->
<g id="node8" class="node"><title>\\MLAQuery</title>
<a xlink:href="includes.class-mla-data-query.html" xlink:title="MLAQuery" target="_parent">
<polygon fill="none" stroke="black" points="631.5,-1578.47 560.5,-1578.47 560.5,-1542.47 631.5,-1542.47 631.5,-1578.47"/>
<text text-anchor="middle" x="596" y="-1557.67" font-family="Courier,monospace" font-size="11.00">MLAQuery</text>
</a>
</g>
<!-- \\MLAReferences -->
<g id="node9" class="node"><title>\\MLAReferences</title>
<a xlink:href="includes.class-mla-data-references.html" xlink:title="MLAReferences" target="_parent">
<polygon fill="none" stroke="black" points="648,-1524.47 544,-1524.47 544,-1488.47 648,-1488.47 648,-1524.47"/>
<text text-anchor="middle" x="596" y="-1503.67" font-family="Courier,monospace" font-size="11.00">MLAReferences</text>
</a>
</g>
<!-- \\MLAData_Source -->
<g id="node10" class="node"><title>\\MLAData_Source</title>
<a xlink:href="includes.class-mla-data-source.html" xlink:title="MLAData_Source" target="_parent">
<polygon fill="none" stroke="black" points="651.5,-1470.47 540.5,-1470.47 540.5,-1434.47 651.5,-1434.47 651.5,-1470.47"/>
<text text-anchor="middle" x="596" y="-1449.67" font-family="Courier,monospace" font-size="11.00">MLAData_Source</text>
</a>
</g>
<!-- \\MLAData -->
<g id="node11" class="node"><title>\\MLAData</title>
<a xlink:href="includes.class-mla-data.html" xlink:title="MLAData" target="_parent">
<polygon fill="none" stroke="black" points="628,-1416.47 564,-1416.47 564,-1380.47 628,-1380.47 628,-1416.47"/>
<text text-anchor="middle" x="596" y="-1395.67" font-family="Courier,monospace" font-size="11.00">MLAData</text>
</a>
</g>
<!-- \\MLAEdit -->
<g id="node12" class="node"><title>\\MLAEdit</title>
<a xlink:href="includes.class-mla-edit-media.html" xlink:title="MLAEdit" target="_parent">
<polygon fill="none" stroke="black" points="628,-1362.47 564,-1362.47 564,-1326.47 628,-1326.47 628,-1362.47"/>
<text text-anchor="middle" x="596" y="-1341.67" font-family="Courier,monospace" font-size="11.00">MLAEdit</text>
</a>
</g>
<!-- \\MLAImageProcessor -->
<g id="node13" class="node"><title>\\MLAImageProcessor</title>
<a xlink:href="includes.class-mla-image-processor.html" xlink:title="MLAImageProcessor" target="_parent">
<polygon fill="none" stroke="black" points="661.5,-1308.47 530.5,-1308.47 530.5,-1272.47 661.5,-1272.47 661.5,-1308.47"/>
<text text-anchor="middle" x="596" y="-1287.67" font-family="Courier,monospace" font-size="11.00">MLAImageProcessor</text>
</a>
</g>
<!-- \\MLAMutex -->
<g id="node14" class="node"><title>\\MLAMutex</title>
<a xlink:href="includes.class-mla-image-processor.html" xlink:title="MLAMutex" target="_parent">
<polygon fill="none" stroke="black" points="631.5,-1254.47 560.5,-1254.47 560.5,-1218.47 631.5,-1218.47 631.5,-1254.47"/>
<text text-anchor="middle" x="596" y="-1233.67" font-family="Courier,monospace" font-size="11.00">MLAMutex</text>
</a>
</g>
<!-- \\MLA_List_Table -->
<g id="node15" class="node"><title>\\MLA_List_Table</title>
<a xlink:href="includes.class-mla-list-table.html" xlink:title="MLA_List_Table" target="_parent">
<polygon fill="none" stroke="black" points="370.5,-1066.47 259.5,-1066.47 259.5,-1030.47 370.5,-1030.47 370.5,-1066.47"/>
<text text-anchor="middle" x="315" y="-1045.67" font-family="Courier,monospace" font-size="11.00">MLA_List_Table</text>
</a>
</g>
<!-- \\WP_List_Table -->
<g id="node41" class="node"><title>\\WP_List_Table</title>
<ellipse fill="none" stroke="black" cx="72" cy="-526.471" rx="71.4873" ry="18"/>
<text text-anchor="middle" x="72" y="-522.771" font-family="Times New Roman,serif" font-size="14.00" fill="gray">\WP_List_Table</text>
</g>
<!-- \\MLA_List_Table&#45;&gt;\\WP_List_Table -->
<g id="edge9" class="edge"><title>\\MLA_List_Table&#45;&gt;\\WP_List_Table</title>
<path fill="none" stroke="black" d="M259.492,-1046.56C243.778,-1043.49 227.73,-1037.54 216,-1026.47 145.192,-959.638 92.1903,-650.495 77.2537,-554.79"/>
<polygon fill="none" stroke="black" points="80.6812,-554.051 75.6975,-544.702 73.763,-555.119 80.6812,-554.051"/>
</g>
<!-- \\MLA -->
<g id="node16" class="node"><title>\\MLA</title>
<a xlink:href="includes.class-mla-main.html" xlink:title="MLA" target="_parent">
<polygon fill="none" stroke="black" points="623,-1200.47 569,-1200.47 569,-1164.47 623,-1164.47 623,-1200.47"/>
<text text-anchor="middle" x="596" y="-1179.67" font-family="Courier,monospace" font-size="11.00">MLA</text>
</a>
</g>
<!-- \\MLAModal_Ajax -->
<g id="node17" class="node"><title>\\MLAModal_Ajax</title>
<a xlink:href="includes.class-mla-media-modal-ajax.html" xlink:title="MLAModal_Ajax" target="_parent">
<polygon fill="none" stroke="black" points="648,-1146.47 544,-1146.47 544,-1110.47 648,-1110.47 648,-1146.47"/>
<text text-anchor="middle" x="596" y="-1125.67" font-family="Courier,monospace" font-size="11.00">MLAModal_Ajax</text>
</a>
</g>
<!-- \\MLAModal -->
<g id="node18" class="node"><title>\\MLAModal</title>
<a xlink:href="includes.class-mla-media-modal.html" xlink:title="MLAModal" target="_parent">
<polygon fill="none" stroke="black" points="631.5,-1092.47 560.5,-1092.47 560.5,-1056.47 631.5,-1056.47 631.5,-1092.47"/>
<text text-anchor="middle" x="596" y="-1071.67" font-family="Courier,monospace" font-size="11.00">MLAModal</text>
</a>
</g>
<!-- \\MLAMime -->
<g id="node19" class="node"><title>\\MLAMime</title>
<a xlink:href="includes.class-mla-mime-types.html" xlink:title="MLAMime" target="_parent">
<polygon fill="none" stroke="black" points="628,-1038.47 564,-1038.47 564,-1002.47 628,-1002.47 628,-1038.47"/>
<text text-anchor="middle" x="596" y="-1017.67" font-family="Courier,monospace" font-size="11.00">MLAMime</text>
</a>
</g>
<!-- \\MLAObjects -->
<g id="node20" class="node"><title>\\MLAObjects</title>
<a xlink:href="includes.class-mla-objects.html" xlink:title="MLAObjects" target="_parent">
<polygon fill="none" stroke="black" points="638,-984.471 554,-984.471 554,-948.471 638,-948.471 638,-984.471"/>
<text text-anchor="middle" x="596" y="-963.671" font-family="Courier,monospace" font-size="11.00">MLAObjects</text>
</a>
</g>
<!-- \\MLATextWidget -->
<g id="node21" class="node"><title>\\MLATextWidget</title>
<a xlink:href="includes.class-mla-objects.html" xlink:title="MLATextWidget" target="_parent">
<polygon fill="none" stroke="black" points="648,-552.471 544,-552.471 544,-516.471 648,-516.471 648,-552.471"/>
<text text-anchor="middle" x="596" y="-531.671" font-family="Courier,monospace" font-size="11.00">MLATextWidget</text>
</a>
</g>
<!-- \\WP_Widget -->
<g id="node43" class="node"><title>\\WP_Widget</title>
<ellipse fill="none" stroke="black" cx="315" cy="-50.4711" rx="58.4896" ry="18"/>
<text text-anchor="middle" x="315" y="-46.7711" font-family="Times New Roman,serif" font-size="14.00" fill="gray">\WP_Widget</text>
</g>
<!-- \\MLATextWidget&#45;&gt;\\WP_Widget -->
<g id="edge11" class="edge"><title>\\MLATextWidget&#45;&gt;\\WP_Widget</title>
<path fill="none" stroke="black" d="M543.856,-533.58C523.147,-530.535 500.702,-523.35 486,-507.471 354.352,-365.287 543.787,-221.356 414,-77.4711 405.466,-68.0099 393.95,-61.7377 381.814,-57.6084"/>
<polygon fill="none" stroke="black" points="382.574,-54.1839 371.993,-54.7361 380.609,-60.9025 382.574,-54.1839"/>
</g>
<!-- \\MLAOptions -->
<g id="node22" class="node"><title>\\MLAOptions</title>
<a xlink:href="includes.class-mla-options.html" xlink:title="MLAOptions" target="_parent">
<polygon fill="none" stroke="black" points="638,-876.471 554,-876.471 554,-840.471 638,-840.471 638,-876.471"/>
<text text-anchor="middle" x="596" y="-855.671" font-family="Courier,monospace" font-size="11.00">MLAOptions</text>
</a>
</g>
<!-- \\MLA_Polylang -->
<g id="node23" class="node"><title>\\MLA_Polylang</title>
<a xlink:href="includes.class-mla-polylang-support.html" xlink:title="MLA_Polylang" target="_parent">
<polygon fill="none" stroke="black" points="645,-822.471 547,-822.471 547,-786.471 645,-786.471 645,-822.471"/>
<text text-anchor="middle" x="596" y="-801.671" font-family="Courier,monospace" font-size="11.00">MLA_Polylang</text>
</a>
</g>
<!-- \\MLASettings -->
<g id="node24" class="node"><title>\\MLASettings</title>
<a xlink:href="includes.class-mla-settings.html" xlink:title="MLASettings" target="_parent">
<polygon fill="none" stroke="black" points="641.5,-768.471 550.5,-768.471 550.5,-732.471 641.5,-732.471 641.5,-768.471"/>
<text text-anchor="middle" x="596" y="-747.671" font-family="Courier,monospace" font-size="11.00">MLASettings</text>
</a>
</g>
<!-- \\MLAShortcode_Support -->
<g id="node25" class="node"><title>\\MLAShortcode_Support</title>
<a xlink:href="includes.class-mla-shortcode-support.html" xlink:title="MLAShortcode_Support" target="_parent">
<polygon fill="none" stroke="black" points="672,-714.471 520,-714.471 520,-678.471 672,-678.471 672,-714.471"/>
<text text-anchor="middle" x="596" y="-693.671" font-family="Courier,monospace" font-size="11.00">MLAShortcode_Support</text>
</a>
</g>
<!-- \\MLAShortcodes -->
<g id="node26" class="node"><title>\\MLAShortcodes</title>
<a xlink:href="includes.class-mla-shortcodes.html" xlink:title="MLAShortcodes" target="_parent">
<polygon fill="none" stroke="black" points="648,-660.471 544,-660.471 544,-624.471 648,-624.471 648,-660.471"/>
<text text-anchor="middle" x="596" y="-639.671" font-family="Courier,monospace" font-size="11.00">MLAShortcodes</text>
</a>
</g>
<!-- \\MLA_Thumbnail -->
<g id="node27" class="node"><title>\\MLA_Thumbnail</title>
<a xlink:href="includes.class-mla-thumbnail-generation.html" xlink:title="MLA_Thumbnail" target="_parent">
<polygon fill="none" stroke="black" points="648,-606.471 544,-606.471 544,-570.471 648,-570.471 648,-606.471"/>
<text text-anchor="middle" x="596" y="-585.671" font-family="Courier,monospace" font-size="11.00">MLA_Thumbnail</text>
</a>
</g>
<!-- \\MLA_Upload_List_Table -->
<g id="node28" class="node"><title>\\MLA_Upload_List_Table</title>
<a xlink:href="includes.class-mla-upload-list-table.html" xlink:title="MLA_Upload_List_Table" target="_parent">
<polygon fill="none" stroke="black" points="675,-498.471 517,-498.471 517,-462.471 675,-462.471 675,-498.471"/>
<text text-anchor="middle" x="596" y="-477.671" font-family="Courier,monospace" font-size="11.00">MLA_Upload_List_Table</text>
</a>
</g>
<!-- \\MLA_Upload_List_Table&#45;&gt;\\WP_List_Table -->
<g id="edge13" class="edge"><title>\\MLA_Upload_List_Table&#45;&gt;\\WP_List_Table</title>
<path fill="none" stroke="black" d="M516.783,-472.939C505.183,-468.695 494.344,-462.483 486,-453.471 354.352,-311.287 549.252,-162.231 414,-23.4711 383.032,8.2998 360.203,-0.659233 316,-4.47109"/>
</g>
<!-- \\MLA_Upload_Optional_List_Table -->
<g id="node29" class="node"><title>\\MLA_Upload_Optional_List_Table</title>
<a xlink:href="includes.class-mla-upload-optional-list-table.html" xlink:title="MLA_Upload_Optional_List_Table" target="_parent">
<polygon fill="none" stroke="black" points="705.5,-444.471 486.5,-444.471 486.5,-408.471 705.5,-408.471 705.5,-444.471"/>
<text text-anchor="middle" x="596" y="-423.671" font-family="Courier,monospace" font-size="11.00">MLA_Upload_Optional_List_Table</text>
</a>
</g>
<!-- \\MLA_Upload_Optional_List_Table&#45;&gt;\\WP_List_Table -->
<g id="edge15" class="edge"><title>\\MLA_Upload_Optional_List_Table&#45;&gt;\\WP_List_Table</title>
<path fill="none" stroke="black" d="M496.147,-408.174C492.495,-405.613 489.085,-402.726 486,-399.471 368.956,-275.977 534.174,-143.922 414,-23.4711 382.664,7.93693 360.203,-0.659233 316,-4.47109"/>
</g>
<!-- \\MLA_View_List_Table -->
<g id="node30" class="node"><title>\\MLA_View_List_Table</title>
<a xlink:href="includes.class-mla-view-list-table.html" xlink:title="MLA_View_List_Table" target="_parent">
<polygon fill="none" stroke="black" points="668.5,-336.471 523.5,-336.471 523.5,-300.471 668.5,-300.471 668.5,-336.471"/>
<text text-anchor="middle" x="596" y="-315.671" font-family="Courier,monospace" font-size="11.00">MLA_View_List_Table</text>
</a>
</g>
<!-- \\MLA_View_List_Table&#45;&gt;\\WP_List_Table -->
<g id="edge17" class="edge"><title>\\MLA_View_List_Table&#45;&gt;\\WP_List_Table</title>
<path fill="none" stroke="black" d="M523.395,-312.166C509.573,-308.001 496.231,-301.503 486,-291.471 397.937,-205.121 504.249,-107.534 414,-23.4711 381.535,6.76829 360.203,-0.659233 316,-4.47109"/>
<path fill="none" stroke="black" d="M314,-4.47109C269.797,-8.28294 248.684,6.53168 216,-23.4711 143.793,-89.7549 91.6588,-402.077 77.1068,-498.228"/>
<polygon fill="none" stroke="black" points="73.6099,-497.948 75.5928,-508.356 80.5329,-498.983 73.6099,-497.948"/>
</g>
<!-- \\MLA_WPML -->
<g id="node31" class="node"><title>\\MLA_WPML</title>
<a xlink:href="includes.class-mla-wpml-support.html" xlink:title="MLA_WPML" target="_parent">
<polygon fill="none" stroke="black" points="631.5,-390.471 560.5,-390.471 560.5,-354.471 631.5,-354.471 631.5,-390.471"/>
<text text-anchor="middle" x="596" y="-369.671" font-family="Courier,monospace" font-size="11.00">MLA_WPML</text>
</a>
</g>
<!-- \\MLA_WPML_List_Table -->
<g id="node32" class="node"><title>\\MLA_WPML_List_Table</title>
<a xlink:href="includes.class-mla-wpml-support.html" xlink:title="MLA_WPML_List_Table" target="_parent">
<polygon fill="none" stroke="black" points="668.5,-1902.47 523.5,-1902.47 523.5,-1866.47 668.5,-1866.47 668.5,-1902.47"/>
<text text-anchor="middle" x="596" y="-1881.67" font-family="Courier,monospace" font-size="11.00">MLA_WPML_List_Table</text>
</a>
</g>
<!-- \\MLA_WPML_List_Table&#45;&gt;\\MLA_List_Table -->
<g id="edge19" class="edge"><title>\\MLA_WPML_List_Table&#45;&gt;\\MLA_List_Table</title>
<path fill="none" stroke="black" d="M523.247,-1878.68C509.351,-1874.49 496.018,-1867.85 486,-1857.47 374.157,-1741.56 327.75,-1206.98 318.013,-1077.01"/>
<polygon fill="none" stroke="black" points="321.478,-1076.41 317.254,-1066.7 314.497,-1076.93 321.478,-1076.41"/>
</g>
<!-- \\MLA_WPML_Table -->
<g id="node33" class="node"><title>\\MLA_WPML_Table</title>
<a xlink:href="includes.class-mla-wpml-support.html" xlink:title="MLA_WPML_Table" target="_parent">
<polygon fill="none" stroke="black" points="651.5,-282.471 540.5,-282.471 540.5,-246.471 651.5,-246.471 651.5,-282.471"/>
<text text-anchor="middle" x="596" y="-261.671" font-family="Courier,monospace" font-size="11.00">MLA_WPML_Table</text>
</a>
</g>
<!-- \\MLATest -->
<g id="node34" class="node"><title>\\MLATest</title>
<a xlink:href="tests.class-mla-tests.html" xlink:title="MLATest" target="_parent">
<polygon fill="none" stroke="black" points="628,-228.471 564,-228.471 564,-192.471 628,-192.471 628,-228.471"/>
<text text-anchor="middle" x="596" y="-207.671" font-family="Courier,monospace" font-size="11.00">MLATest</text>
</a>
</g>
</g>
</svg>
