<?xml version="1.0" encoding="UTF-8" standalone="no"?>
<!DOCTYPE svg PUBLIC "-//W3C//DTD SVG 1.1//EN"
 "http://www.w3.org/Graphics/SVG/1.1/DTD/svg11.dtd">
<!-- Generated by graphviz version 2.28.0 (20110507.0327)
 -->
<!-- Title: G Pages: 1 -->
<svg width="730pt" height="2054pt"
 viewBox="0.00 0.00 730.00 2054.19" xmlns="http://www.w3.org/2000/svg" xmlns:xlink="http://www.w3.org/1999/xlink">
<g id="graph1" class="graph" transform="scale(1 1) rotate(0) translate(4 2050.19)">
<title>G</title>
<polygon fill="white" stroke="white" points="-4,5 -4,-2050.19 727,-2050.19 727,5 -4,5"/>
<g id="graph2" class="cluster"><title>cluster_global</title>
<polyline fill="none" stroke="gray" points="263,-184.187 702,-184.187 "/>
<path fill="none" stroke="gray" d="M702,-184.187C708,-184.187 714,-190.187 714,-196.187"/>
<polyline fill="none" stroke="gray" points="714,-196.187 714,-2026.19 "/>
<path fill="none" stroke="gray" d="M714,-2026.19C714,-2032.19 708,-2038.19 702,-2038.19"/>
<polyline fill="none" stroke="gray" points="702,-2038.19 263,-2038.19 "/>
<path fill="none" stroke="gray" d="M263,-2038.19C257,-2038.19 251,-2032.19 251,-2026.19"/>
<polyline fill="none" stroke="gray" points="251,-2026.19 251,-196.187 "/>
<path fill="none" stroke="gray" d="M251,-196.187C251,-190.187 257,-184.187 263,-184.187"/>
<text text-anchor="middle" x="482.5" y="-2025.39" font-family="Times New Roman,serif" font-size="11.00" fill="gray">global</text>
</g>
<!-- \\MNA_Pad_Counts_Walker -->
<g id="node2" class="node"><title>\\MNA_Pad_Counts_Walker</title>
<a xlink:href="examples.twentytwelve-mla.content-tosca30-dropdown.html" xlink:title="MNA_Pad_Counts_Walker" target="_parent">
<polygon fill="none" stroke="black" points="675,-1740.19 517,-1740.19 517,-1704.19 675,-1704.19 675,-1740.19"/>
<text text-anchor="middle" x="596" y="-1719.39" font-family="Courier,monospace" font-size="11.00">MNA_Pad_Counts_Walker</text>
</a>
</g>
<!-- \\Walker_Category -->
<g id="node38" class="node"><title>\\Walker_Category</title>
<ellipse fill="none" stroke="black" cx="315" cy="-158.187" rx="77.1866" ry="18"/>
<text text-anchor="middle" x="315" y="-154.487" font-family="Times New Roman,serif" font-size="14.00" fill="gray">\Walker_Category</text>
</g>
<!-- \\MNA_Pad_Counts_Walker&#45;&gt;\\Walker_Category -->
<g id="edge3" class="edge"><title>\\MNA_Pad_Counts_Walker&#45;&gt;\\Walker_Category</title>
<path fill="none" stroke="black" d="M516.946,-1715.88C505.03,-1711.54 494.044,-1704.98 486,-1695.19 379.024,-1564.97 522.402,-309.219 414,-180.187 409.731,-175.105 404.565,-171.048 398.863,-167.824"/>
<polygon fill="none" stroke="black" points="400.051,-164.514 389.513,-163.414 397.065,-170.845 400.051,-164.514"/>
</g>
<!-- \\CPAC_Storage_Model_MLA -->
<g id="node3" class="node"><title>\\CPAC_Storage_Model_MLA</title>
<a xlink:href="includes.class-mla-admin-columns-support.html" xlink:title="CPAC_Storage_Model_MLA" target="_parent">
<polygon fill="none" stroke="black" points="678.5,-984.187 513.5,-984.187 513.5,-948.187 678.5,-948.187 678.5,-984.187"/>
<text text-anchor="middle" x="596" y="-963.387" font-family="Courier,monospace" font-size="11.00">CPAC_Storage_Model_MLA</text>
</a>
</g>
<!-- \\CPAC_Storage_Model -->
<g id="node40" class="node"><title>\\CPAC_Storage_Model</title>
<ellipse fill="none" stroke="black" cx="315" cy="-104.187" rx="98.5829" ry="18"/>
<text text-anchor="middle" x="315" y="-100.487" font-family="Times New Roman,serif" font-size="14.00" fill="gray">\CPAC_Storage_Model</text>
</g>
<!-- \\CPAC_Storage_Model_MLA&#45;&gt;\\CPAC_Storage_Model -->
<g id="edge5" class="edge"><title>\\CPAC_Storage_Model_MLA&#45;&gt;\\CPAC_Storage_Model</title>
<path fill="none" stroke="black" d="M513.453,-958.127C502.975,-953.855 493.357,-947.774 486,-939.187 368.711,-802.295 529.498,-269.594 414,-131.187 410.555,-127.058 406.542,-123.53 402.144,-120.518"/>
<polygon fill="none" stroke="black" points="403.664,-117.353 393.263,-115.339 400.138,-123.4 403.664,-117.353"/>
</g>
<!-- \\MLA_Ajax -->
<g id="node4" class="node"><title>\\MLA_Ajax</title>
<a xlink:href="includes.class-mla-ajax.html" xlink:title="MLA_Ajax" target="_parent">
<polygon fill="none" stroke="black" points="631.5,-1902.19 560.5,-1902.19 560.5,-1866.19 631.5,-1866.19 631.5,-1902.19"/>
<text text-anchor="middle" x="596" y="-1881.39" font-family="Courier,monospace" font-size="11.00">MLA_Ajax</text>
</a>
</g>
<!-- \\MLACoreOptions -->
<g id="node5" class="node"><title>\\MLACoreOptions</title>
<a xlink:href="includes.class-mla-core-options.html" xlink:title="MLACoreOptions" target="_parent">
<polygon fill="none" stroke="black" points="651.5,-1848.19 540.5,-1848.19 540.5,-1812.19 651.5,-1812.19 651.5,-1848.19"/>
<text text-anchor="middle" x="596" y="-1827.39" font-family="Courier,monospace" font-size="11.00">MLACoreOptions</text>
</a>
</g>
<!-- \\MLACore -->
<g id="node6" class="node"><title>\\MLACore</title>
<a xlink:href="includes.class-mla-core.html" xlink:title="MLACore" target="_parent">
<polygon fill="none" stroke="black" points="628,-1794.19 564,-1794.19 564,-1758.19 628,-1758.19 628,-1794.19"/>
<text text-anchor="middle" x="596" y="-1773.39" font-family="Courier,monospace" font-size="11.00">MLACore</text>
</a>
</g>
<!-- \\MLA_Checklist_Walker -->
<g id="node7" class="node"><title>\\MLA_Checklist_Walker</title>
<a xlink:href="includes.class-mla-core.html" xlink:title="MLA_Checklist_Walker" target="_parent">
<polygon fill="none" stroke="black" points="672,-1956.19 520,-1956.19 520,-1920.19 672,-1920.19 672,-1956.19"/>
<text text-anchor="middle" x="596" y="-1935.39" font-family="Courier,monospace" font-size="11.00">MLA_Checklist_Walker</text>
</a>
</g>
<!-- \\MLA_Checklist_Walker&#45;&gt;\\Walker_Category -->
<g id="edge7" class="edge"><title>\\MLA_Checklist_Walker&#45;&gt;\\Walker_Category</title>
<path fill="none" stroke="black" d="M519.94,-1932.97C506.865,-1928.66 494.693,-1921.83 486,-1911.19 364.244,-1762.08 537.388,-327.942 414,-180.187 409.746,-175.093 404.59,-171.027 398.895,-167.796"/>
<polygon fill="none" stroke="black" points="400.091,-164.49 389.554,-163.379 397.099,-170.818 400.091,-164.49"/>
</g>
<!-- \\MLAPDF -->
<g id="node8" class="node"><title>\\MLAPDF</title>
<a xlink:href="includes.class-mla-data-pdf.html" xlink:title="MLAPDF" target="_parent">
<polygon fill="none" stroke="black" points="624.5,-1686.19 567.5,-1686.19 567.5,-1650.19 624.5,-1650.19 624.5,-1686.19"/>
<text text-anchor="middle" x="596" y="-1665.39" font-family="Courier,monospace" font-size="11.00">MLAPDF</text>
</a>
</g>
<!-- \\MLAQuery -->
<g id="node9" class="node"><title>\\MLAQuery</title>
<a xlink:href="includes.class-mla-data-query.html" xlink:title="MLAQuery" target="_parent">
<polygon fill="none" stroke="black" points="631.5,-1632.19 560.5,-1632.19 560.5,-1596.19 631.5,-1596.19 631.5,-1632.19"/>
<text text-anchor="middle" x="596" y="-1611.39" font-family="Courier,monospace" font-size="11.00">MLAQuery</text>
</a>
</g>
<!-- \\MLAReferences -->
<g id="node10" class="node"><title>\\MLAReferences</title>
<a xlink:href="includes.class-mla-data-references.html" xlink:title="MLAReferences" target="_parent">
<polygon fill="none" stroke="black" points="648,-1578.19 544,-1578.19 544,-1542.19 648,-1542.19 648,-1578.19"/>
<text text-anchor="middle" x="596" y="-1557.39" font-family="Courier,monospace" font-size="11.00">MLAReferences</text>
</a>
</g>
<!-- \\MLAData_Source -->
<g id="node11" class="node"><title>\\MLAData_Source</title>
<a xlink:href="includes.class-mla-data-source.html" xlink:title="MLAData_Source" target="_parent">
<polygon fill="none" stroke="black" points="651.5,-1524.19 540.5,-1524.19 540.5,-1488.19 651.5,-1488.19 651.5,-1524.19"/>
<text text-anchor="middle" x="596" y="-1503.39" font-family="Courier,monospace" font-size="11.00">MLAData_Source</text>
</a>
</g>
<!-- \\MLAData -->
<g id="node12" class="node"><title>\\MLAData</title>
<a xlink:href="includes.class-mla-data.html" xlink:title="MLAData" target="_parent">
<polygon fill="none" stroke="black" points="628,-1470.19 564,-1470.19 564,-1434.19 628,-1434.19 628,-1470.19"/>
<text text-anchor="middle" x="596" y="-1449.39" font-family="Courier,monospace" font-size="11.00">MLAData</text>
</a>
</g>
<!-- \\MLAEdit -->
<g id="node13" class="node"><title>\\MLAEdit</title>
<a xlink:href="includes.class-mla-edit-media.html" xlink:title="MLAEdit" target="_parent">
<polygon fill="none" stroke="black" points="628,-1416.19 564,-1416.19 564,-1380.19 628,-1380.19 628,-1416.19"/>
<text text-anchor="middle" x="596" y="-1395.39" font-family="Courier,monospace" font-size="11.00">MLAEdit</text>
</a>
</g>
<!-- \\MLAImageProcessor -->
<g id="node14" class="node"><title>\\MLAImageProcessor</title>
<a xlink:href="includes.class-mla-image-processor.html" xlink:title="MLAImageProcessor" target="_parent">
<polygon fill="none" stroke="black" points="661.5,-1362.19 530.5,-1362.19 530.5,-1326.19 661.5,-1326.19 661.5,-1362.19"/>
<text text-anchor="middle" x="596" y="-1341.39" font-family="Courier,monospace" font-size="11.00">MLAImageProcessor</text>
</a>
</g>
<!-- \\MLAMutex -->
<g id="node15" class="node"><title>\\MLAMutex</title>
<a xlink:href="includes.class-mla-image-processor.html" xlink:title="MLAMutex" target="_parent">
<polygon fill="none" stroke="black" points="631.5,-1308.19 560.5,-1308.19 560.5,-1272.19 631.5,-1272.19 631.5,-1308.19"/>
<text text-anchor="middle" x="596" y="-1287.39" font-family="Courier,monospace" font-size="11.00">MLAMutex</text>
</a>
</g>
<!-- \\MLA_List_Table -->
<g id="node16" class="node"><title>\\MLA_List_Table</title>
<a xlink:href="includes.class-mla-list-table.html" xlink:title="MLA_List_Table" target="_parent">
<polygon fill="none" stroke="black" points="370.5,-1120.19 259.5,-1120.19 259.5,-1084.19 370.5,-1084.19 370.5,-1120.19"/>
<text text-anchor="middle" x="315" y="-1099.39" font-family="Courier,monospace" font-size="11.00">MLA_List_Table</text>
</a>
</g>
<!-- \\WP_List_Table -->
<g id="node43" class="node"><title>\\WP_List_Table</title>
<ellipse fill="none" stroke="black" cx="72" cy="-553.187" rx="71.4873" ry="18"/>
<text text-anchor="middle" x="72" y="-549.487" font-family="Times New Roman,serif" font-size="14.00" fill="gray">\WP_List_Table</text>
</g>
<!-- \\MLA_List_Table&#45;&gt;\\WP_List_Table -->
<g id="edge9" class="edge"><title>\\MLA_List_Table&#45;&gt;\\WP_List_Table</title>
<path fill="none" stroke="black" d="M259.399,-1100.37C243.681,-1097.3 227.654,-1091.34 216,-1080.19 141.724,-1009.12 90.6682,-680.254 76.7956,-581.379"/>
<polygon fill="none" stroke="black" points="80.2322,-580.68 75.3929,-571.255 73.2984,-581.641 80.2322,-580.68"/>
</g>
<!-- \\MLA -->
<g id="node17" class="node"><title>\\MLA</title>
<a xlink:href="includes.class-mla-main.html" xlink:title="MLA" target="_parent">
<polygon fill="none" stroke="black" points="623,-1254.19 569,-1254.19 569,-1218.19 623,-1218.19 623,-1254.19"/>
<text text-anchor="middle" x="596" y="-1233.39" font-family="Courier,monospace" font-size="11.00">MLA</text>
</a>
</g>
<!-- \\MLAModal_Ajax -->
<g id="node18" class="node"><title>\\MLAModal_Ajax</title>
<a xlink:href="includes.class-mla-media-modal-ajax.html" xlink:title="MLAModal_Ajax" target="_parent">
<polygon fill="none" stroke="black" points="648,-1200.19 544,-1200.19 544,-1164.19 648,-1164.19 648,-1200.19"/>
<text text-anchor="middle" x="596" y="-1179.39" font-family="Courier,monospace" font-size="11.00">MLAModal_Ajax</text>
</a>
</g>
<!-- \\MLAModal -->
<g id="node19" class="node"><title>\\MLAModal</title>
<a xlink:href="includes.class-mla-media-modal.html" xlink:title="MLAModal" target="_parent">
<polygon fill="none" stroke="black" points="631.5,-1146.19 560.5,-1146.19 560.5,-1110.19 631.5,-1110.19 631.5,-1146.19"/>
<text text-anchor="middle" x="596" y="-1125.39" font-family="Courier,monospace" font-size="11.00">MLAModal</text>
</a>
</g>
<!-- \\MLAMime -->
<g id="node20" class="node"><title>\\MLAMime</title>
<a xlink:href="includes.class-mla-mime-types.html" xlink:title="MLAMime" target="_parent">
<polygon fill="none" stroke="black" points="628,-1092.19 564,-1092.19 564,-1056.19 628,-1056.19 628,-1092.19"/>
<text text-anchor="middle" x="596" y="-1071.39" font-family="Courier,monospace" font-size="11.00">MLAMime</text>
</a>
</g>
<!-- \\MLAObjects -->
<g id="node21" class="node"><title>\\MLAObjects</title>
<a xlink:href="includes.class-mla-objects.html" xlink:title="MLAObjects" target="_parent">
<polygon fill="none" stroke="black" points="638,-1038.19 554,-1038.19 554,-1002.19 638,-1002.19 638,-1038.19"/>
<text text-anchor="middle" x="596" y="-1017.39" font-family="Courier,monospace" font-size="11.00">MLAObjects</text>
</a>
</g>
<!-- \\MLATextWidget -->
<g id="node22" class="node"><title>\\MLATextWidget</title>
<a xlink:href="includes.class-mla-objects.html" xlink:title="MLATextWidget" target="_parent">
<polygon fill="none" stroke="black" points="648,-606.187 544,-606.187 544,-570.187 648,-570.187 648,-606.187"/>
<text text-anchor="middle" x="596" y="-585.387" font-family="Courier,monospace" font-size="11.00">MLATextWidget</text>
</a>
</g>
<!-- \\WP_Widget -->
<g id="node45" class="node"><title>\\WP_Widget</title>
<ellipse fill="none" stroke="black" cx="315" cy="-50.1869" rx="58.4896" ry="18"/>
<text text-anchor="middle" x="315" y="-46.4869" font-family="Times New Roman,serif" font-size="14.00" fill="gray">\WP_Widget</text>
</g>
<!-- \\MLATextWidget&#45;&gt;\\WP_Widget -->
<g id="edge11" class="edge"><title>\\MLATextWidget&#45;&gt;\\WP_Widget</title>
<path fill="none" stroke="black" d="M543.997,-587.465C523.185,-584.467 500.622,-577.271 486,-561.187 339.706,-400.268 558.188,-239.996 414,-77.1869 405.552,-67.6483 394.075,-61.3424 381.948,-57.2046"/>
<polygon fill="none" stroke="black" points="382.71,-53.7807 372.129,-54.3305 380.743,-60.4988 382.71,-53.7807"/>
</g>
<!-- \\MLAOptions -->
<g id="node23" class="node"><title>\\MLAOptions</title>
<a xlink:href="includes.class-mla-options.html" xlink:title="MLAOptions" target="_parent">
<polygon fill="none" stroke="black" points="638,-930.187 554,-930.187 554,-894.187 638,-894.187 638,-930.187"/>
<text text-anchor="middle" x="596" y="-909.387" font-family="Courier,monospace" font-size="11.00">MLAOptions</text>
</a>
</g>
<!-- \\MLA_Polylang -->
<g id="node24" class="node"><title>\\MLA_Polylang</title>
<a xlink:href="includes.class-mla-polylang-support.html" xlink:title="MLA_Polylang" target="_parent">
<polygon fill="none" stroke="black" points="645,-876.187 547,-876.187 547,-840.187 645,-840.187 645,-876.187"/>
<text text-anchor="middle" x="596" y="-855.387" font-family="Courier,monospace" font-size="11.00">MLA_Polylang</text>
</a>
</g>
<!-- \\MLASettings -->
<g id="node25" class="node"><title>\\MLASettings</title>
<a xlink:href="includes.class-mla-settings.html" xlink:title="MLASettings" target="_parent">
<polygon fill="none" stroke="black" points="641.5,-822.187 550.5,-822.187 550.5,-786.187 641.5,-786.187 641.5,-822.187"/>
<text text-anchor="middle" x="596" y="-801.387" font-family="Courier,monospace" font-size="11.00">MLASettings</text>
</a>
</g>
<!-- \\MLAShortcode_Support -->
<g id="node26" class="node"><title>\\MLAShortcode_Support</title>
<a xlink:href="includes.class-mla-shortcode-support.html" xlink:title="MLAShortcode_Support" target="_parent">
<polygon fill="none" stroke="black" points="672,-768.187 520,-768.187 520,-732.187 672,-732.187 672,-768.187"/>
<text text-anchor="middle" x="596" y="-747.387" font-family="Courier,monospace" font-size="11.00">MLAShortcode_Support</text>
</a>
</g>
<!-- \\MLAShortcodes -->
<g id="node27" class="node"><title>\\MLAShortcodes</title>
<a xlink:href="includes.class-mla-shortcodes.html" xlink:title="MLAShortcodes" target="_parent">
<polygon fill="none" stroke="black" points="648,-714.187 544,-714.187 544,-678.187 648,-678.187 648,-714.187"/>
<text text-anchor="middle" x="596" y="-693.387" font-family="Courier,monospace" font-size="11.00">MLAShortcodes</text>
</a>
</g>
<!-- \\MLA_Thumbnail -->
<g id="node28" class="node"><title>\\MLA_Thumbnail</title>
<a xlink:href="includes.class-mla-thumbnail-generation.html" xlink:title="MLA_Thumbnail" target="_parent">
<polygon fill="none" stroke="black" points="648,-660.187 544,-660.187 544,-624.187 648,-624.187 648,-660.187"/>
<text text-anchor="middle" x="596" y="-639.387" font-family="Courier,monospace" font-size="11.00">MLA_Thumbnail</text>
</a>
</g>
<!-- \\MLA_Upload_List_Table -->
<g id="node29" class="node"><title>\\MLA_Upload_List_Table</title>
<a xlink:href="includes.class-mla-upload-list-table.html" xlink:title="MLA_Upload_List_Table" target="_parent">
<polygon fill="none" stroke="black" points="675,-552.187 517,-552.187 517,-516.187 675,-516.187 675,-552.187"/>
<text text-anchor="middle" x="596" y="-531.387" font-family="Courier,monospace" font-size="11.00">MLA_Upload_List_Table</text>
</a>
</g>
<!-- \\MLA_Upload_List_Table&#45;&gt;\\WP_List_Table -->
<g id="edge13" class="edge"><title>\\MLA_Upload_List_Table&#45;&gt;\\WP_List_Table</title>
<path fill="none" stroke="black" d="M516.918,-526.885C505.23,-522.624 494.328,-516.347 486,-507.187 339.706,-346.268 564.374,-180.3 414,-23.1869 383.323,8.86483 360.268,-1.2252 316,-4.18694"/>
</g>
<!-- \\MLA_Upload_Optional_List_Table -->
<g id="node30" class="node"><title>\\MLA_Upload_Optional_List_Table</title>
<a xlink:href="includes.class-mla-upload-optional-list-table.html" xlink:title="MLA_Upload_Optional_List_Table" target="_parent">
<polygon fill="none" stroke="black" points="705.5,-498.187 486.5,-498.187 486.5,-462.187 705.5,-462.187 705.5,-498.187"/>
<text text-anchor="middle" x="596" y="-477.387" font-family="Courier,monospace" font-size="11.00">MLA_Upload_Optional_List_Table</text>
</a>
</g>
<!-- \\MLA_Upload_Optional_List_Table&#45;&gt;\\WP_List_Table -->
<g id="edge15" class="edge"><title>\\MLA_Upload_Optional_List_Table&#45;&gt;\\WP_List_Table</title>
<path fill="none" stroke="black" d="M496.052,-461.978C492.425,-459.394 489.046,-456.477 486,-453.187 354.352,-311.003 549.252,-161.947 414,-23.1869 383.032,8.58395 360.268,-1.2252 316,-4.18694"/>
</g>
<!-- \\MLA_View_List_Table -->
<g id="node31" class="node"><title>\\MLA_View_List_Table</title>
<a xlink:href="includes.class-mla-view-list-table.html" xlink:title="MLA_View_List_Table" target="_parent">
<polygon fill="none" stroke="black" points="668.5,-390.187 523.5,-390.187 523.5,-354.187 668.5,-354.187 668.5,-390.187"/>
<text text-anchor="middle" x="596" y="-369.387" font-family="Courier,monospace" font-size="11.00">MLA_View_List_Table</text>
</a>
</g>
<!-- \\MLA_View_List_Table&#45;&gt;\\WP_List_Table -->
<g id="edge17" class="edge"><title>\\MLA_View_List_Table&#45;&gt;\\WP_List_Table</title>
<path fill="none" stroke="black" d="M523.348,-366.294C509.446,-362.112 496.084,-355.504 486,-345.187 383.497,-240.316 519.16,-125.394 414,-23.1869 382.185,7.73505 360.268,-1.2252 316,-4.18694"/>
<path fill="none" stroke="black" d="M314,-4.18694C269.732,-7.14868 248.481,7.03496 216,-23.1869 140.341,-93.5829 90.2454,-425.068 76.6986,-524.759"/>
<polygon fill="none" stroke="black" points="73.1899,-524.59 75.3298,-534.967 80.1279,-525.521 73.1899,-524.59"/>
</g>
<!-- \\MLA_WPML -->
<g id="node32" class="node"><title>\\MLA_WPML</title>
<a xlink:href="includes.class-mla-wpml-support.html" xlink:title="MLA_WPML" target="_parent">
<polygon fill="none" stroke="black" points="631.5,-444.187 560.5,-444.187 560.5,-408.187 631.5,-408.187 631.5,-444.187"/>
<text text-anchor="middle" x="596" y="-423.387" font-family="Courier,monospace" font-size="11.00">MLA_WPML</text>
</a>
</g>
<!-- \\MLA_WPML_List_Table -->
<g id="node33" class="node"><title>\\MLA_WPML_List_Table</title>
<a xlink:href="includes.class-mla-wpml-support.html" xlink:title="MLA_WPML_List_Table" target="_parent">
<polygon fill="none" stroke="black" points="668.5,-2010.19 523.5,-2010.19 523.5,-1974.19 668.5,-1974.19 668.5,-2010.19"/>
<text text-anchor="middle" x="596" y="-1989.39" font-family="Courier,monospace" font-size="11.00">MLA_WPML_List_Table</text>
</a>
</g>
<!-- \\MLA_WPML_List_Table&#45;&gt;\\MLA_List_Table -->
<g id="edge19" class="edge"><title>\\MLA_WPML_List_Table&#45;&gt;\\MLA_List_Table</title>
<path fill="none" stroke="black" d="M523.429,-1986.57C509.438,-1982.38 496.019,-1975.7 486,-1965.19 367.276,-1840.58 325.826,-1266.31 317.616,-1130.87"/>
<polygon fill="none" stroke="black" points="321.087,-1130.28 317.001,-1120.5 314.1,-1130.69 321.087,-1130.28"/>
</g>
<!-- \\MLA_WPML_Table -->
<g id="node34" class="node"><title>\\MLA_WPML_Table</title>
<a xlink:href="includes.class-mla-wpml-support.html" xlink:title="MLA_WPML_Table" target="_parent">
<polygon fill="none" stroke="black" points="651.5,-336.187 540.5,-336.187 540.5,-300.187 651.5,-300.187 651.5,-336.187"/>
<text text-anchor="middle" x="596" y="-315.387" font-family="Courier,monospace" font-size="11.00">MLA_WPML_Table</text>
</a>
</g>
<!-- \\MLAUninstall -->
<g id="node35" class="node"><title>\\MLAUninstall</title>
<a xlink:href="mla-uninstall.html" xlink:title="MLAUninstall" target="_parent">
<polygon fill="none" stroke="black" points="645,-282.187 547,-282.187 547,-246.187 645,-246.187 645,-282.187"/>
<text text-anchor="middle" x="596" y="-261.387" font-family="Courier,monospace" font-size="11.00">MLAUninstall</text>
</a>
</g>
<!-- \\MLATest -->
<g id="node36" class="node"><title>\\MLATest</title>
<a xlink:href="tests.class-mla-tests.html" xlink:title="MLATest" target="_parent">
<polygon fill="none" stroke="black" points="628,-228.187 564,-228.187 564,-192.187 628,-192.187 628,-228.187"/>
<text text-anchor="middle" x="596" y="-207.387" font-family="Courier,monospace" font-size="11.00">MLATest</text>
</a>
</g>
</g>
</svg>
